<svg version="1.1" id="Layer_1" xmlns="http://www.w3.org/2000/svg" xmlns:xlink="http://www.w3.org/1999/xlink" x="0px" y="0px"
	 width="100%" viewBox="0 0 1569 1600" enable-background="new 0 0 1569 1600" xml:space="preserve">
<path fill="#FCFEFF" opacity="1.000000" stroke="none" 
	d="
M1.000007,1599.000000 
	C1.000000,1067.298462 1.000000,535.596863 1.381997,3.786087 
	C3.894291,3.451170 6.024575,3.027741 8.154886,3.027608 
	C526.249756,2.995298 1044.344727,2.992528 1562.439575,2.988947 
	C1564.200928,2.988935 1565.962402,2.988946 1568.020996,2.988946 
	C1568.020996,5.965457 1568.021118,8.275174 1568.021118,10.584890 
	C1568.020630,536.678711 1568.020142,1062.772461 1568.018677,1588.866333 
	C1568.018677,1592.910889 1568.006470,1596.955444 1568.000000,1601.000000 
	C1046.631714,1601.000000 525.263489,1601.000000 3.713510,1600.651611 
	C2.687843,1599.868896 1.843929,1599.434448 1.000007,1599.000000 
M1380.051270,1188.573608 
	C1406.593018,1147.470215 1428.623291,1104.073120 1445.879028,1058.291992 
	C1465.364258,1006.595825 1478.600342,953.370789 1485.279541,898.466614 
	C1489.108765,866.991211 1491.068848,835.444214 1490.615112,803.790588 
	C1489.998413,760.785156 1485.589478,718.152649 1477.123535,675.912964 
	C1467.842651,629.607239 1454.096069,584.718323 1435.604370,541.317383 
	C1403.987549,467.111053 1360.720459,400.395630 1305.877563,341.206787 
	C1253.458740,284.634155 1193.338501,237.981812 1125.450195,201.419922 
	C1030.684448,150.382950 929.307739,123.384369 821.885559,119.118164 
	C781.375671,117.509338 740.945007,119.682159 700.784302,125.306053 
	C664.182251,130.431610 628.164307,138.387665 592.816467,149.293625 
	C522.767883,170.905869 457.739685,202.755997 397.842834,245.002121 
	C323.441284,297.478607 261.599030,362.037323 212.413330,438.664246 
	C163.193604,515.344238 130.632980,598.634338 114.133476,688.187805 
	C107.366791,724.914978 103.276802,762.030884 103.317619,799.358093 
	C103.348351,827.455139 104.729401,855.629333 107.194534,883.620789 
	C109.246513,906.920837 112.782387,930.198242 117.365059,953.145325 
	C127.523865,1004.014160 143.601959,1053.110229 165.307770,1100.251587 
	C214.468964,1207.021851 285.718567,1296.227051 379.678436,1366.891724 
	C493.722076,1452.660889 622.464783,1498.492554 764.823853,1505.724243 
	C797.406494,1507.379395 830.074768,1506.605347 862.662048,1503.262939 
	C890.823120,1500.374268 918.713440,1496.198975 946.363342,1490.181396 
	C1008.508972,1476.656616 1067.605225,1454.851929 1123.599243,1424.757080 
	C1229.030151,1368.091064 1314.222168,1289.349609 1380.051270,1188.573608 
z"/>
<path fill="#756D6E" opacity="1.000000" stroke="none" 
	d="
M1568.500000,1601.000000 
	C1568.006470,1596.955444 1568.018677,1592.910889 1568.018677,1588.866333 
	C1568.020142,1062.772461 1568.020630,536.678711 1568.021118,10.584890 
	C1568.021118,8.275174 1568.020996,5.965457 1568.020996,2.988946 
	C1565.962402,2.988946 1564.200928,2.988935 1562.439575,2.988947 
	C1044.344727,2.992528 526.249756,2.995298 8.154886,3.027608 
	C6.024575,3.027741 3.894291,3.451170 1.381997,3.338455 
	C1.333176,2.333333 1.547692,1.216322 2.023493,1.090955 
	C3.114249,0.803554 4.332493,1.000000 5.498976,1.000000 
	C526.916809,1.000000 1048.334717,1.000000 1570.000000,1.000000 
	C1570.000000,3.581179 1570.000000,6.166263 1570.000000,8.751346 
	C1570.000000,538.001282 1570.000732,1067.251221 1569.958740,1596.501221 
	C1569.958618,1598.000854 1569.333374,1599.500366 1568.500000,1601.000000 
z"/>
<path fill="#424041" opacity="1.000000" stroke="none" 
	d="
M1.000017,1599.500000 
	C1.843929,1599.434448 2.687843,1599.868896 3.265888,1600.651611 
	C2.333353,1600.666626 1.666687,1600.333252 1.000017,1599.500000 
z"/>
<path fill="#0595D8" opacity="1.000000" stroke="none" 
	d="
M1379.874023,1188.890137 
	C1314.222168,1289.349609 1229.030151,1368.091064 1123.599243,1424.757080 
	C1067.605225,1454.851929 1008.508972,1476.656616 946.363342,1490.181396 
	C918.713440,1496.198975 890.823120,1500.374268 862.662048,1503.262939 
	C830.074768,1506.605347 797.406494,1507.379395 764.823853,1505.724243 
	C622.464783,1498.492554 493.722076,1452.660889 379.678436,1366.891724 
	C285.718567,1296.227051 214.468964,1207.021851 165.307770,1100.251587 
	C143.601959,1053.110229 127.523865,1004.014160 117.365059,953.145325 
	C112.782387,930.198242 109.246513,906.920837 107.194534,883.620789 
	C104.729401,855.629333 103.348351,827.455139 103.317619,799.358093 
	C103.276802,762.030884 107.366791,724.914978 114.133476,688.187805 
	C130.632980,598.634338 163.193604,515.344238 212.413330,438.664246 
	C261.599030,362.037323 323.441284,297.478607 397.842834,245.002121 
	C457.739685,202.755997 522.767883,170.905869 592.816467,149.293625 
	C628.164307,138.387665 664.182251,130.431610 700.784302,125.306053 
	C740.945007,119.682159 781.375671,117.509338 821.885559,119.118164 
	C929.307739,123.384369 1030.684448,150.382950 1125.450195,201.419922 
	C1193.338501,237.981812 1253.458740,284.634155 1305.877563,341.206787 
	C1360.720459,400.395630 1403.987549,467.111053 1435.604370,541.317383 
	C1454.096069,584.718323 1467.842651,629.607239 1477.123535,675.912964 
	C1485.589478,718.152649 1489.998413,760.785156 1490.615112,803.790588 
	C1491.068848,835.444214 1489.108765,866.991211 1485.279541,898.466614 
	C1478.600342,953.370789 1465.364258,1006.595825 1445.879028,1058.291992 
	C1428.623291,1104.073120 1406.593018,1147.470215 1379.874023,1188.890137 
M588.276611,1447.219238 
	C616.584351,1456.473022 645.373596,1463.747314 674.660034,1469.255127 
	C704.317566,1474.832642 734.204895,1478.613892 764.292297,1479.666382 
	C789.064270,1480.532959 813.956116,1480.165283 838.707458,1478.781250 
	C861.253967,1477.520630 883.811157,1474.987061 906.134705,1471.534302 
	C943.146667,1465.809692 979.334900,1456.397827 1014.753601,1444.118164 
	C1102.614868,1413.656372 1180.781006,1366.908936 1249.166260,1303.969116 
	C1309.454590,1248.481445 1357.961304,1184.015259 1394.649414,1110.703125 
	C1425.542725,1048.970581 1446.059204,983.909058 1456.889282,915.792297 
	C1461.651245,885.841431 1464.170654,855.629211 1464.672485,825.322815 
	C1465.490601,775.915588 1461.046875,726.965149 1451.153809,678.480469 
	C1439.654419,622.124084 1421.264648,568.175110 1395.708862,516.698059 
	C1354.575073,433.841492 1298.655762,362.490356 1228.087646,302.665253 
	C1179.004395,261.054291 1125.001465,227.270065 1066.129272,201.279709 
	C1011.830872,177.308578 955.359497,160.642426 896.610291,152.298767 
	C872.425476,148.864029 848.002869,146.506927 823.607849,145.330338 
	C802.523804,144.313446 781.316528,145.370636 760.179932,146.029175 
	C722.317993,147.208801 685.005432,152.987549 648.136169,161.311539 
	C603.257568,171.443817 559.837708,186.153900 518.077148,205.532608 
	C417.854858,252.040100 333.975098,319.074249 266.597565,406.634888 
	C218.633759,468.966370 183.043243,537.799072 159.400833,612.800232 
	C143.279953,663.940674 133.774765,716.356384 130.269073,769.808411 
	C128.272964,800.243286 128.588760,830.713379 130.788849,861.183350 
	C132.973450,891.439087 137.072510,921.411499 143.335846,951.042664 
	C154.172470,1002.309570 170.752014,1051.708374 193.367340,1099.018066 
	C235.741516,1187.661743 294.667603,1263.499146 370.155243,1326.355225 
	C434.943726,1380.302612 507.452881,1420.493896 588.276611,1447.219238 
z"/>
<path fill="#FCFEFF" opacity="1.000000" stroke="none" 
	d="
M587.892151,1447.118286 
	C507.452881,1420.493896 434.943726,1380.302612 370.155243,1326.355225 
	C294.667603,1263.499146 235.741516,1187.661743 193.367340,1099.018066 
	C170.752014,1051.708374 154.172470,1002.309570 143.335846,951.042664 
	C137.072510,921.411499 132.973450,891.439087 130.788849,861.183350 
	C128.588760,830.713379 128.272964,800.243286 130.269073,769.808411 
	C133.774765,716.356384 143.279953,663.940674 159.400833,612.800232 
	C183.043243,537.799072 218.633759,468.966370 266.597565,406.634888 
	C333.975098,319.074249 417.854858,252.040100 518.077148,205.532608 
	C559.837708,186.153900 603.257568,171.443817 648.136169,161.311539 
	C685.005432,152.987549 722.317993,147.208801 760.179932,146.029175 
	C781.316528,145.370636 802.523804,144.313446 823.607849,145.330338 
	C848.002869,146.506927 872.425476,148.864029 896.610291,152.298767 
	C955.359497,160.642426 1011.830872,177.308578 1066.129272,201.279709 
	C1125.001465,227.270065 1179.004395,261.054291 1228.087646,302.665253 
	C1298.655762,362.490356 1354.575073,433.841492 1395.708862,516.698059 
	C1421.264648,568.175110 1439.654419,622.124084 1451.153809,678.480469 
	C1461.046875,726.965149 1465.490601,775.915588 1464.672485,825.322815 
	C1464.170654,855.629211 1461.651245,885.841431 1456.889282,915.792297 
	C1446.059204,983.909058 1425.542725,1048.970581 1394.649414,1110.703125 
	C1357.961304,1184.015259 1309.454590,1248.481445 1249.166260,1303.969116 
	C1180.781006,1366.908936 1102.614868,1413.656372 1014.753601,1444.118164 
	C979.334900,1456.397827 943.146667,1465.809692 906.134705,1471.534302 
	C883.811157,1474.987061 861.253967,1477.520630 838.707458,1478.781250 
	C813.956116,1480.165283 789.064270,1480.532959 764.292297,1479.666382 
	C734.204895,1478.613892 704.317566,1474.832642 674.660034,1469.255127 
	C645.373596,1463.747314 616.584351,1456.473022 587.892151,1447.118286 
M388.249634,693.789795 
	C375.667969,696.883423 362.915222,699.421875 350.554504,703.232178 
	C339.005219,706.792358 327.796906,711.518433 316.589050,716.099731 
	C311.393555,718.223389 309.882935,722.603271 311.303101,728.070923 
	C312.889404,734.178284 313.958496,740.436646 315.823456,746.452271 
	C330.828613,794.852722 346.014343,843.197327 360.961365,891.615601 
	C361.929657,894.752319 362.078888,898.502869 361.414825,901.721497 
	C358.125824,917.663086 354.168915,933.468140 350.945984,949.422058 
	C345.517822,976.291870 339.864410,1003.140198 335.478516,1030.187622 
	C332.801453,1046.696899 332.016022,1063.543701 330.998413,1080.276367 
	C330.596802,1086.880493 331.875519,1087.668091 338.716370,1087.495483 
	C348.697937,1087.243652 358.683929,1086.761475 368.640717,1086.013916 
	C390.378754,1084.381470 412.121185,1082.748291 433.821564,1080.690674 
	C457.995544,1078.398804 482.128265,1075.667480 506.272644,1073.068726 
	C530.577759,1070.453125 554.881104,1067.817993 579.174500,1065.095703 
	C608.262329,1061.836182 637.345459,1058.531616 666.418640,1055.143555 
	C697.467896,1051.525146 728.513611,1047.872070 759.541687,1044.077148 
	C794.208496,1039.837524 828.862488,1035.489502 863.506042,1031.063477 
	C896.655273,1026.828491 929.798828,1022.542480 962.918030,1018.080017 
	C1001.967468,1012.818481 1040.997070,1007.406494 1080.017700,1001.935059 
	C1100.596680,999.049561 1121.173340,996.117065 1141.688110,992.814392 
	C1169.416260,988.350403 1197.160522,983.915100 1224.750488,978.689209 
	C1243.165771,975.201172 1261.396729,970.641235 1279.566162,965.997314 
	C1288.208130,963.788635 1289.857910,963.038208 1285.704956,952.786743 
	C1281.354980,942.048889 1276.348755,931.284302 1269.817139,921.776245 
	C1248.055664,890.098328 1225.452759,858.998779 1203.300171,827.587524 
	C1202.164307,825.977112 1201.338623,823.275757 1201.845703,821.505554 
	C1217.954834,765.285522 1234.528442,709.196838 1250.329102,652.891113 
	C1254.711182,637.275208 1257.357788,621.113647 1259.887939,605.058655 
	C1261.416016,595.362854 1260.630981,595.209839 1250.900391,593.820129 
	C1248.109253,593.421448 1245.279175,592.934998 1242.480225,593.006470 
	C1216.010132,593.682312 1189.530640,594.181763 1163.079224,595.321350 
	C1143.627808,596.159180 1124.200317,597.702026 1104.787476,599.248352 
	C1082.396606,601.031982 1060.031982,603.148376 1037.658813,605.151733 
	C1023.074097,606.457642 1008.483826,607.714111 993.915161,609.183228 
	C975.715454,611.018433 957.536865,613.063721 939.346375,614.991272 
	C922.142822,616.814392 904.925049,618.508606 887.732544,620.429626 
	C865.917847,622.867126 844.122253,625.475708 822.318542,628.011597 
	C806.963440,629.797485 791.595398,631.479309 776.257019,633.398621 
	C756.960022,635.813171 737.688232,638.428650 718.404114,640.946350 
	C692.025513,644.390320 665.622131,647.655518 639.272949,651.311279 
	C615.070374,654.669250 590.906494,658.319946 566.760315,662.065857 
	C538.338135,666.475098 509.884949,670.740295 481.571014,675.775391 
	C450.655762,681.273193 419.884491,687.580627 388.249634,693.789795 
M900.768005,526.827209 
	C901.196167,529.108521 901.417664,531.453308 902.094971,533.658081 
	C903.553040,538.404541 902.166199,541.867432 898.987244,545.755188 
	C892.142212,554.126099 889.774780,563.942322 892.010132,574.785950 
	C895.233276,590.421265 908.667175,602.699585 924.177368,603.877075 
	C941.126282,605.163757 956.337097,595.268433 961.881775,579.348633 
	C967.205078,564.064209 961.443054,546.597961 947.597717,537.737122 
	C943.932068,535.391113 942.571106,532.621704 941.891052,528.673767 
	C937.875366,505.360565 932.150940,482.506470 923.196838,460.535095 
	C908.977356,425.644196 888.133057,395.862579 856.075439,375.124939 
	C813.686523,347.704132 767.397400,341.665375 718.674927,351.993134 
	C668.047729,362.724640 626.837158,389.281830 594.248474,429.082092 
	C558.526672,472.708801 542.846680,523.830200 540.070862,579.441467 
	C539.915955,582.544250 539.127441,584.446167 536.510193,586.399414 
	C522.614685,596.769592 518.024292,615.308105 525.208374,630.633789 
	C532.580261,646.360046 549.999390,655.057800 566.718201,650.630981 
	C580.678345,646.934631 590.073853,637.872620 593.291626,623.599976 
	C596.338379,610.086121 592.745972,598.141846 582.358887,588.719604 
	C579.894592,586.484131 578.867737,584.343628 578.995728,581.053284 
	C580.374023,545.606140 587.699951,511.506348 601.990784,478.990448 
	C616.545227,445.874634 636.943298,417.204803 667.487305,397.038940 
	C705.282532,372.085754 746.285706,364.857513 789.919006,378.429657 
	C827.030945,389.973297 853.878296,414.379852 872.960754,447.794983 
	C886.892639,472.191101 894.882202,498.691223 900.768005,526.827209 
M1269.201782,724.482483 
	C1267.487793,727.827209 1264.521973,731.089539 1264.295166,734.532227 
	C1263.621948,744.755554 1263.139038,755.143188 1264.204712,765.296204 
	C1266.139648,783.728821 1270.685181,801.619019 1279.992188,817.928772 
	C1287.221436,830.597351 1293.408447,831.964478 1305.190308,823.365356 
	C1320.248657,812.374817 1331.213867,797.740967 1340.975342,782.134460 
	C1347.267822,772.073853 1352.455200,761.512695 1354.593872,749.672852 
	C1356.244751,740.534180 1352.515503,734.094299 1343.748413,731.083984 
	C1331.787354,726.976990 1321.081299,729.792053 1311.411621,737.227722 
	C1307.506104,740.230896 1304.127686,743.919373 1300.894531,746.936584 
	C1298.475342,741.879944 1296.516724,736.363708 1293.406128,731.599426 
	C1288.006958,723.329956 1278.274780,720.546082 1269.201782,724.482483 
M245.389923,973.143311 
	C258.249634,976.106934 271.247040,977.677856 284.463806,976.936279 
	C299.389984,976.098816 304.082611,969.546997 299.631226,955.422485 
	C293.375824,935.573730 282.850372,918.125366 268.412720,903.261292 
	C263.915375,898.631104 257.895660,895.343323 252.226212,892.035095 
	C248.347992,889.772095 244.367920,891.404724 241.260239,894.298523 
	C235.556595,899.609558 231.535782,906.171814 232.189240,914.051880 
	C232.819656,921.654114 234.980133,929.129456 236.271500,935.664124 
	C231.073410,936.522400 224.579742,936.897034 218.565353,938.792419 
	C213.040497,940.533508 209.835388,945.376221 209.061234,951.244568 
	C208.288177,957.104736 212.509262,960.407166 216.802765,962.321533 
	C225.846802,966.354065 235.292862,969.484985 245.389923,973.143311 
M1377.465210,841.410522 
	C1370.210815,829.234619 1359.201172,829.491943 1347.766968,832.786438 
	C1347.766968,828.102295 1348.645996,823.635803 1347.588989,819.687561 
	C1345.177124,810.677307 1336.568726,808.391418 1331.293579,815.433594 
	C1320.024414,830.477539 1314.301392,847.676880 1314.275269,866.517883 
	C1314.266357,872.928833 1317.021973,875.490723 1323.417236,874.883240 
	C1342.854980,873.036926 1360.102661,865.778320 1374.077271,851.945068 
	C1376.325073,849.719971 1376.558716,845.460205 1377.465210,841.410522 
M316.968628,852.626465 
	C315.582428,847.690857 314.717407,842.526062 312.674255,837.879333 
	C310.276428,832.425964 306.471771,831.164368 300.714478,832.865356 
	C293.810181,834.905212 289.377136,839.614746 287.130676,846.339111 
	C286.123932,849.352600 285.542755,852.508240 285.050934,854.471680 
	C279.828308,852.887878 275.073578,850.403931 270.228241,850.212280 
	C262.268463,849.897461 258.643890,855.994385 262.298950,863.013184 
	C264.883606,867.976318 268.144043,872.737000 271.837311,876.943115 
	C280.226624,886.497314 289.597931,895.011902 301.569214,899.974670 
	C307.464294,902.418579 310.572144,901.029541 313.160828,895.249939 
	C313.968384,893.446960 314.588501,891.533020 315.064270,889.612854 
	C318.013519,877.709839 318.974884,865.687866 316.968628,852.626465 
M718.038391,1134.465942 
	C715.712524,1136.077148 713.315796,1137.596069 711.074585,1139.317505 
	C705.235962,1143.802002 702.050110,1149.700195 703.388428,1157.094238 
	C704.873352,1165.298950 710.342957,1169.946045 718.304382,1172.082764 
	C727.471252,1174.543091 735.196045,1171.255127 742.659119,1166.295166 
	C744.246399,1168.663208 745.299194,1171.488159 747.332886,1172.888916 
	C749.103210,1174.108276 752.431824,1174.630981 754.222778,1173.744995 
	C755.584778,1173.071289 756.404785,1169.557739 756.036865,1167.572632 
	C755.577271,1165.092896 753.851440,1162.741089 752.305725,1160.598511 
	C750.654358,1158.309692 750.877014,1156.437012 751.690735,1153.776733 
	C753.023315,1149.420044 753.794556,1144.732910 753.747253,1140.196045 
	C753.729736,1138.518433 750.930542,1135.939209 749.023804,1135.531738 
	C747.704834,1135.249878 745.420044,1137.748901 744.168518,1139.448486 
	C743.184387,1140.784912 743.119995,1142.798584 742.399292,1145.409302 
	C740.890442,1142.800781 739.939453,1140.699585 738.579956,1138.908569 
	C736.281860,1135.881104 737.051025,1133.955078 739.637268,1131.319824 
	C742.222229,1128.685669 744.300171,1125.203491 745.582458,1121.718506 
	C747.852356,1115.549438 745.129517,1109.135742 739.799194,1106.267334 
	C734.355591,1103.338013 728.908752,1104.789185 724.268127,1109.938721 
	C719.553772,1115.169922 719.312012,1121.177002 721.334961,1127.242065 
	C722.521057,1130.798340 721.491943,1132.544189 718.038391,1134.465942 
M803.875122,1172.713135 
	C810.002869,1172.141479 811.022156,1171.096191 811.110779,1165.169922 
	C811.168091,1161.340088 811.350464,1157.500610 811.161926,1153.680908 
	C810.782166,1145.987305 815.982910,1142.387939 821.690674,1138.221924 
	C821.887207,1139.722046 822.029663,1140.504883 822.087280,1141.294067 
	C822.790100,1150.913208 823.511230,1160.531128 824.158508,1170.154175 
	C824.410217,1173.896240 826.264648,1176.246582 830.009766,1176.255249 
	C834.027100,1176.264648 836.026611,1173.814819 835.909790,1169.801025 
	C835.837280,1167.310303 835.650024,1164.820923 835.443359,1162.336792 
	C834.988464,1156.868042 834.358032,1151.410156 834.055847,1145.933716 
	C833.874756,1142.651001 838.902710,1137.472534 842.118286,1138.309814 
	C843.745178,1138.733521 845.301086,1142.055298 845.657227,1144.265137 
	C846.978271,1152.462524 847.830933,1160.737549 848.769775,1168.993652 
	C849.225464,1173.000854 851.398987,1175.296509 855.344177,1174.745728 
	C859.160583,1174.213013 860.962097,1171.644653 860.379883,1167.544434 
	C859.165649,1158.993286 857.803040,1150.447388 857.045166,1141.851318 
	C855.763855,1127.318604 846.840271,1122.379395 833.996521,1129.419312 
	C833.432678,1129.728271 832.836060,1129.977417 832.254700,1130.254517 
	C828.897400,1128.125366 825.254089,1126.041870 821.864136,1126.394409 
	C818.192627,1126.776245 814.757263,1129.429443 811.189453,1131.105835 
	C811.053284,1127.451294 809.339233,1124.075439 804.946472,1124.139771 
	C800.197937,1124.208862 799.806152,1128.557495 798.934448,1132.089600 
	C798.856201,1132.406982 798.877563,1132.752930 798.878967,1133.085449 
	C798.922302,1143.576782 798.696899,1154.081421 799.202698,1164.550537 
	C799.332153,1167.229370 801.775757,1169.796509 803.875122,1172.713135 
M1184.947876,1123.539429 
	C1185.189575,1119.384277 1185.541992,1115.231689 1185.640259,1111.073242 
	C1185.728638,1107.328369 1184.974609,1103.916992 1180.290039,1103.535767 
	C1175.735107,1103.165283 1174.661865,1106.361572 1174.315186,1109.898560 
	C1173.748657,1115.677490 1173.391113,1121.476807 1172.922241,1127.568237 
	C1171.770386,1127.213379 1170.865967,1126.921875 1169.954102,1126.655396 
	C1159.314087,1123.547119 1148.406616,1127.908447 1143.403442,1137.267700 
	C1137.698975,1147.939087 1139.721436,1161.784790 1148.129150,1168.301514 
	C1154.993042,1173.621582 1162.725708,1174.034668 1170.893188,1171.967896 
	C1172.567627,1171.544189 1174.686890,1171.644653 1176.265259,1172.305542 
	C1181.031616,1174.301147 1184.844727,1171.677612 1184.824829,1166.381714 
	C1184.772217,1152.419922 1184.875854,1138.457642 1184.947876,1123.539429 
M1001.081970,1133.500000 
	C1000.944824,1143.817261 1001.216675,1154.163940 1000.474243,1164.437500 
	C1000.166565,1168.694336 1001.345154,1170.970337 1004.988525,1171.830322 
	C1008.925537,1172.759399 1011.552673,1170.665161 1012.049133,1166.724854 
	C1012.609009,1162.281860 1012.602661,1157.770752 1012.966064,1153.299316 
	C1013.506775,1146.646973 1017.146790,1141.820190 1022.690491,1138.613770 
	C1026.521973,1136.397583 1028.665527,1137.860229 1028.792114,1142.259644 
	C1028.931152,1147.086426 1028.623047,1151.939575 1029.006470,1156.741699 
	C1029.348633,1161.026001 1030.103882,1165.324097 1031.171631,1169.489258 
	C1032.039062,1172.873535 1034.766968,1174.202026 1038.181152,1173.416626 
	C1041.340820,1172.689575 1043.025879,1170.605103 1042.710449,1167.255859 
	C1041.838745,1157.997925 1040.861084,1148.749878 1040.033936,1139.488159 
	C1039.074585,1128.746216 1032.180054,1123.849121 1021.690186,1126.833496 
	C1018.747314,1127.670776 1016.019714,1129.264771 1012.993408,1130.599976 
	C1012.922668,1129.353516 1012.818237,1128.371216 1012.819092,1127.388794 
	C1012.824219,1121.561523 1013.104614,1115.720581 1012.785156,1109.912109 
	C1012.579102,1106.165527 1010.741272,1102.922485 1006.315308,1103.158325 
	C1001.863098,1103.395752 1000.802185,1106.433105 1000.937012,1110.521973 
	C1001.178406,1117.841675 1001.056519,1125.173340 1001.081970,1133.500000 
M1108.904175,1159.571045 
	C1109.512329,1147.236938 1115.064819,1138.111694 1122.870728,1137.353149 
	C1122.985474,1138.946655 1123.116577,1140.542847 1123.212646,1142.141113 
	C1123.719482,1150.578369 1124.068237,1159.028564 1124.774048,1167.449097 
	C1125.202637,1172.561768 1127.567871,1174.657959 1131.513550,1173.940552 
	C1135.901855,1173.142578 1136.733521,1170.114990 1136.391357,1166.117065 
	C1135.726562,1158.350220 1135.342896,1150.559692 1134.808105,1142.781372 
	C1134.671265,1140.792114 1134.537354,1138.787231 1134.174072,1136.831787 
	C1132.685303,1128.815796 1128.281006,1125.086182 1120.255371,1126.049438 
	C1116.477661,1126.502808 1112.894043,1128.573975 1108.996826,1129.994385 
	C1108.017944,1126.607422 1105.629395,1123.773193 1100.995605,1125.056641 
	C1096.619873,1126.268433 1096.938477,1130.022217 1096.948486,1133.620117 
	C1096.964722,1139.435425 1096.640503,1145.251099 1096.601074,1151.067505 
	C1096.560547,1157.026489 1096.602173,1162.989136 1096.777710,1168.945190 
	C1096.880249,1172.425415 1099.150757,1173.971680 1102.399292,1173.947388 
	C1105.624146,1173.923340 1107.761841,1172.283813 1108.153564,1168.933716 
	C1108.481445,1166.127808 1108.637085,1163.301758 1108.904175,1159.571045 
M587.510010,1126.460571 
	C580.956482,1124.604004 575.244324,1126.583984 569.835571,1131.034424 
	C568.783325,1126.145386 566.214844,1123.914551 561.808838,1125.035400 
	C557.496887,1126.132324 557.998108,1129.776367 557.915710,1133.155029 
	C557.773926,1138.966187 557.302002,1144.769287 557.151611,1150.580566 
	C557.005371,1156.234619 556.825745,1161.909668 557.148499,1167.547607 
	C557.446411,1172.753174 561.795715,1175.740845 565.596313,1173.336304 
	C567.328857,1172.240112 568.676025,1169.499390 568.965271,1167.339600 
	C570.125366,1158.676758 569.321533,1149.508545 575.420471,1142.222290 
	C577.360413,1139.904663 580.150146,1138.298218 582.551025,1136.366333 
	C583.083130,1136.723022 583.615234,1137.079834 584.147339,1137.436523 
	C584.147339,1139.355225 584.053833,1141.279175 584.163513,1143.191528 
	C584.648010,1151.640991 585.175293,1160.088013 585.719604,1168.533813 
	C585.970581,1172.428467 588.188721,1174.253662 591.990356,1173.966553 
	C595.898254,1173.671387 597.542419,1171.201416 597.295288,1167.502441 
	C596.642395,1157.729980 595.999634,1147.953735 595.105957,1138.201538 
	C594.668030,1133.422974 593.039001,1129.083496 587.510010,1126.460571 
M544.369690,1130.020020 
	C527.336121,1121.651245 512.444885,1128.466431 508.402740,1146.480835 
	C505.716614,1158.452148 510.725769,1168.330322 521.604126,1171.458862 
	C525.675537,1172.629761 530.281677,1173.492310 534.337952,1172.771973 
	C539.397583,1171.873291 544.388428,1169.622314 548.873413,1167.028931 
	C550.257812,1166.228271 550.447388,1162.293823 550.013855,1160.017212 
	C549.869141,1159.257324 546.044373,1158.770508 543.965820,1158.940430 
	C542.263672,1159.079590 540.686584,1160.452148 539.001770,1161.151978 
	C532.755798,1163.746704 524.812439,1162.464600 521.115479,1158.126953 
	C528.078552,1154.856689 535.122620,1151.894287 541.833496,1148.308594 
	C550.139832,1143.870239 551.115479,1137.277832 544.369690,1130.020020 
M1273.117554,1127.354248 
	C1264.485840,1130.073486 1259.769165,1136.398071 1257.593872,1144.763794 
	C1254.197998,1157.823364 1258.896362,1168.001221 1270.164917,1171.366943 
	C1274.370605,1172.623291 1279.164307,1173.499634 1283.371216,1172.753296 
	C1288.398926,1171.861206 1293.306030,1169.425171 1297.783447,1166.827271 
	C1299.114258,1166.055054 1299.811035,1161.959106 1298.961426,1160.365112 
	C1298.280518,1159.087769 1294.809204,1158.911621 1292.595825,1158.971191 
	C1291.085083,1159.011719 1289.632812,1160.356567 1288.111572,1161.020020 
	C1281.680786,1163.824463 1273.481934,1162.531494 1270.087158,1158.134888 
	C1277.399292,1154.577637 1284.748657,1151.141602 1291.959473,1147.435791 
	C1295.588745,1145.570557 1297.865112,1142.389404 1297.600952,1138.164795 
	C1297.317749,1133.638794 1294.979736,1129.865601 1290.500244,1128.918945 
	C1285.078369,1127.773193 1279.433472,1127.683838 1273.117554,1127.354248 
M902.589417,1169.171997 
	C903.508484,1168.469971 904.985779,1167.926147 905.238342,1167.035278 
	C905.904358,1164.686035 906.038635,1162.185913 906.384644,1159.745972 
	C904.230896,1159.473145 902.047729,1158.858521 899.933228,1159.040894 
	C898.381958,1159.174683 896.942139,1160.403198 895.415771,1161.057861 
	C888.933167,1163.838623 880.779724,1162.510376 877.513184,1158.140137 
	C884.835571,1154.583740 892.237976,1151.197754 899.428772,1147.409912 
	C903.144287,1145.452881 905.523254,1142.200195 905.031006,1137.632202 
	C904.555298,1133.218140 901.980103,1130.245361 897.962219,1128.747437 
	C884.429504,1123.702637 871.020508,1127.198853 865.667419,1142.598999 
	C860.248901,1158.187622 867.139526,1170.330444 883.086548,1172.834717 
	C889.651245,1173.865479 896.000671,1172.585693 902.589417,1169.171997 
M1049.477295,1142.276855 
	C1049.069946,1147.684082 1047.886719,1153.171143 1048.433350,1158.480225 
	C1049.295898,1166.856445 1055.256714,1172.410278 1063.661133,1172.997437 
	C1067.793091,1173.286377 1072.032593,1171.825195 1076.242432,1171.309814 
	C1078.047729,1171.088867 1080.265503,1170.609863 1081.655884,1171.389526 
	C1084.458740,1172.961182 1086.931274,1174.293823 1089.840454,1171.965698 
	C1093.032959,1169.410767 1091.418823,1166.593994 1090.069824,1163.960693 
	C1085.967529,1155.953247 1086.517456,1147.491821 1087.882690,1139.099487 
	C1088.817017,1133.355103 1088.323242,1131.607056 1082.920654,1129.180908 
	C1070.050659,1123.401245 1056.952637,1128.299072 1049.477295,1142.276855 
M460.918793,1164.315918 
	C460.992249,1153.983765 460.962677,1143.649292 461.190063,1133.320557 
	C461.280640,1129.205933 460.156494,1126.382690 455.639954,1126.113159 
	C451.008392,1125.836914 449.545288,1128.824951 449.371857,1132.759277 
	C449.144501,1137.916992 449.040558,1143.081055 448.960236,1148.243652 
	C448.896271,1152.355469 448.947327,1156.469116 448.947327,1160.473755 
	C446.699127,1160.999023 445.100189,1161.474121 443.467041,1161.737061 
	C435.763672,1162.977417 434.080627,1161.893188 433.803558,1154.060791 
	C433.557465,1147.103638 434.396820,1140.108276 434.157410,1133.150513 
	C434.081146,1130.933350 432.592651,1127.871704 430.811249,1126.875122 
	C429.250244,1126.001831 425.648529,1126.750366 424.271698,1128.116455 
	C422.750000,1129.626221 422.150726,1132.656982 422.165649,1135.019043 
	C422.221252,1143.822266 422.387360,1152.648193 423.109894,1161.416260 
	C423.654663,1168.027344 428.251984,1172.338745 434.924286,1172.939697 
	C438.509186,1173.262695 442.181885,1172.602783 445.815521,1172.396362 
	C447.279419,1172.313232 448.919128,1171.791260 450.181580,1172.263550 
	C458.854858,1175.508911 461.008118,1174.167480 460.918793,1164.315918 
M415.062073,1159.320068 
	C415.603912,1157.061646 416.248077,1154.822144 416.670044,1152.541504 
	C418.614624,1142.032471 412.861847,1130.670288 404.252167,1127.897827 
	C394.955933,1124.904419 384.630188,1129.107056 379.519470,1137.963989 
	C373.534698,1148.335938 375.178711,1161.519653 383.002045,1168.708008 
	C391.072235,1176.123169 408.129639,1176.277344 415.062073,1159.320068 
M1234.959106,1173.409180 
	C1237.388550,1172.901367 1239.923340,1172.678589 1242.225708,1171.827148 
	C1247.166504,1170.000000 1250.827759,1166.887329 1251.532959,1161.200073 
	C1252.220947,1155.651733 1249.393066,1151.855103 1245.159302,1149.127319 
	C1241.405518,1146.708740 1237.209106,1144.986450 1233.279785,1142.826538 
	C1231.522095,1141.860229 1229.939575,1140.574707 1228.068237,1139.290405 
	C1233.223022,1135.354492 1238.479004,1135.563232 1243.052124,1138.502197 
	C1244.565430,1139.474731 1248.613403,1139.472412 1248.990967,1138.695435 
	C1250.208252,1136.190674 1251.059448,1132.935791 1250.470581,1130.326904 
	C1250.078247,1128.589233 1247.057861,1126.392212 1245.092285,1126.264160 
	C1239.657959,1125.910156 1234.095093,1126.089722 1228.703369,1126.879883 
	C1221.531494,1127.931274 1217.677612,1131.573608 1216.997437,1136.680908 
	C1216.178101,1142.831909 1218.705322,1147.306274 1225.132202,1150.681030 
	C1228.659058,1152.532959 1232.425293,1153.951904 1235.850952,1155.962402 
	C1237.359985,1156.848022 1238.290283,1158.719727 1239.483276,1160.143677 
	C1237.805908,1161.039917 1236.103638,1162.724976 1234.456299,1162.672974 
	C1230.709229,1162.554443 1226.976685,1161.648071 1223.261963,1160.937378 
	C1220.233154,1160.357910 1216.844727,1159.561523 1215.419312,1163.079102 
	C1213.911133,1166.801147 1216.069580,1169.925537 1219.563721,1170.926758 
	C1224.266846,1172.274414 1229.240845,1172.676270 1234.959106,1173.409180 
M363.812103,1148.640503 
	C358.350616,1145.613525 352.889130,1142.586548 347.427643,1139.559570 
	C347.682983,1138.964355 347.938324,1138.369141 348.193634,1137.773926 
	C353.035553,1136.742065 357.774170,1133.910156 362.710327,1138.721680 
	C363.766083,1139.750854 368.089569,1139.549438 368.315369,1138.945557 
	C369.364258,1136.140259 370.171783,1132.883301 369.696442,1130.014893 
	C369.439667,1128.465210 366.480255,1126.346924 364.657806,1126.262573 
	C359.042786,1126.002563 353.318085,1126.135864 347.766510,1126.977539 
	C340.713593,1128.046753 336.970734,1131.950562 336.197937,1137.627319 
	C335.521027,1142.599609 338.590515,1147.481201 344.533600,1150.615234 
	C348.647125,1152.784302 352.903137,1154.689941 356.955902,1156.962158 
	C357.880798,1157.480713 358.660950,1159.015625 358.685516,1160.101562 
	C358.700623,1160.769043 357.139343,1162.078979 356.313751,1162.057007 
	C352.105042,1161.944580 347.895233,1161.584839 343.705780,1161.128662 
	C340.335266,1160.761597 336.279633,1158.816528 334.752563,1163.530273 
	C333.291168,1168.041260 336.845062,1170.213257 340.351929,1171.618774 
	C346.732056,1174.176392 353.316254,1174.271362 359.916290,1172.379761 
	C365.364014,1170.818237 369.722992,1167.908936 370.902893,1161.997925 
	C372.067932,1156.161377 369.020660,1152.132446 363.812103,1148.640503 
M985.123413,1140.389038 
	C987.271545,1139.361206 990.007935,1138.801147 991.340698,1137.125000 
	C992.104248,1136.164795 991.182983,1132.853271 989.989563,1131.529663 
	C985.645813,1126.712402 974.445374,1124.714844 968.539368,1127.243408 
	C959.143555,1131.265747 950.873474,1148.036011 953.316467,1157.953491 
	C955.310486,1166.048340 960.601318,1170.895630 968.417236,1172.901611 
	C976.935181,1175.087646 984.604980,1172.670410 991.131714,1167.096069 
	C992.233337,1166.155273 992.661194,1162.507812 991.820496,1161.638184 
	C990.384888,1160.152954 987.627747,1159.102417 985.555725,1159.291870 
	C983.050537,1159.520996 980.725037,1161.349609 978.242310,1162.271851 
	C973.925354,1163.875244 969.875610,1162.858887 966.668152,1159.851807 
	C963.562500,1156.940308 963.344971,1153.045410 964.994751,1149.221924 
	C966.237976,1146.340698 967.699341,1143.538208 969.259094,1140.812622 
	C971.807190,1136.359619 975.757629,1136.095947 980.068481,1137.671753 
	C981.608276,1138.234619 982.985901,1139.241333 985.123413,1140.389038 
M481.992493,1171.605103 
	C485.454163,1173.693604 488.814697,1173.262451 490.481079,1169.665771 
	C495.925781,1157.914185 501.002930,1145.990967 506.140503,1134.098877 
	C507.657837,1130.586548 505.905548,1128.230225 502.752441,1126.978882 
	C498.839203,1125.425903 496.400970,1127.406982 494.930725,1130.936279 
	C492.013947,1137.937988 489.129333,1144.953003 485.826569,1152.941895 
	C484.667175,1150.283569 483.924652,1148.702026 483.280243,1147.081421 
	C481.011230,1141.375610 478.948853,1135.579712 476.461731,1129.971436 
	C475.014252,1126.707397 472.234772,1125.242310 468.640808,1126.794067 
	C465.059631,1128.340332 464.263397,1131.057861 465.745728,1134.575195 
	C466.455292,1136.258789 467.060455,1137.986816 467.783569,1139.664307 
	C472.310730,1150.166748 476.857819,1160.660767 481.992493,1171.605103 
M626.587708,1136.997070 
	C626.536133,1146.978271 626.460327,1156.959595 626.445679,1166.940796 
	C626.440247,1170.622314 627.505798,1173.734985 631.895447,1173.779297 
	C636.306946,1173.823975 637.998718,1171.135376 637.952881,1166.972168 
	C637.894348,1161.648682 637.923645,1156.323975 637.937073,1150.999878 
	C637.955750,1143.562988 643.025635,1138.399170 650.637146,1138.137817 
	C651.022949,1139.890381 651.267029,1141.709473 651.832275,1143.422607 
	C653.097595,1147.257568 657.940796,1148.663818 660.564331,1145.675659 
	C664.304932,1141.414917 663.211731,1136.243042 661.795776,1131.456543 
	C660.600891,1127.417114 657.160767,1125.621948 653.157410,1126.354126 
	C648.166992,1127.266846 643.304016,1128.875610 639.393250,1129.916016 
	C635.943176,1129.023315 632.790527,1127.279541 630.172424,1127.877319 
	C628.596191,1128.237061 627.827087,1132.230713 626.757263,1134.619141 
	C626.566772,1135.044312 626.680237,1135.605591 626.587708,1136.997070 
M938.469482,1141.900024 
	C940.097351,1147.078735 945.063354,1149.052002 947.914795,1145.373169 
	C951.309021,1140.993896 950.313599,1135.772949 948.718811,1131.039673 
	C947.286926,1126.789795 943.345276,1125.534546 939.297058,1126.361328 
	C934.513855,1127.338135 929.879456,1129.043335 925.180481,1130.432617 
	C922.789368,1128.770386 919.893127,1127.280396 917.305298,1127.698486 
	C913.634155,1128.291748 913.802368,1131.935425 913.786987,1134.998535 
	C913.732849,1145.810547 913.614319,1156.622314 913.562195,1167.434326 
	C913.543213,1171.370728 915.330750,1173.967163 919.500305,1173.777832 
	C923.275940,1173.606323 925.036255,1171.198120 925.020874,1167.439209 
	C924.997009,1161.615845 924.982178,1155.792114 925.027466,1149.968994 
	C925.068420,1144.691162 930.038696,1138.725708 935.240356,1138.181030 
	C936.162903,1138.084351 937.303833,1140.073364 938.469482,1141.900024 
M616.851807,1166.864014 
	C616.923950,1155.399414 616.952454,1143.934204 617.094910,1132.470459 
	C617.137573,1129.035645 615.554565,1127.074707 612.271240,1126.687500 
	C608.831543,1126.281860 606.500793,1127.849243 605.688049,1131.315430 
	C605.462830,1132.275879 605.388611,1133.289185 605.377014,1134.279663 
	C605.256226,1144.579712 605.166199,1154.880249 605.058655,1165.180542 
	C605.024841,1168.421509 605.718811,1171.250000 609.448608,1171.962646 
	C613.026184,1172.646484 615.652283,1171.433838 616.851807,1166.864014 
M1206.236572,1167.612427 
	C1206.513550,1156.500977 1206.729858,1145.387451 1207.098145,1134.278931 
	C1207.238403,1130.041382 1206.015747,1126.982544 1201.335083,1126.628052 
	C1197.497437,1126.337402 1195.288086,1128.893188 1195.185669,1133.964355 
	C1194.970825,1144.590332 1194.738770,1155.226196 1195.035034,1165.843384 
	C1195.092773,1167.912354 1197.081909,1170.882446 1198.950439,1171.721191 
	C1201.726929,1172.967529 1204.918823,1172.130737 1206.236572,1167.612427 
M617.646362,1118.364380 
	C620.285095,1115.400757 620.715149,1111.788696 617.496643,1109.703247 
	C615.349060,1108.311768 611.345642,1108.145874 609.026611,1109.240356 
	C607.510559,1109.955933 606.453735,1114.224609 607.079346,1116.344482 
	C608.275879,1120.398438 612.069824,1120.632446 615.781067,1119.633545 
	C616.243042,1119.509277 616.636169,1119.128906 617.646362,1118.364380 
M1204.016724,1107.840088 
	C1199.781006,1107.350098 1196.728882,1108.840698 1196.052979,1113.288574 
	C1195.521606,1116.784546 1197.539673,1119.085571 1200.783081,1119.892334 
	C1204.165405,1120.733765 1207.357910,1119.761475 1208.657715,1116.330444 
	C1210.088257,1112.554688 1208.795532,1109.481201 1204.016724,1107.840088 
z"/>
<path fill="#0294D9" opacity="1.000000" stroke="none" 
	d="
M388.650055,693.662476 
	C419.884491,687.580627 450.655762,681.273193 481.571014,675.775391 
	C509.884949,670.740295 538.338135,666.475098 566.760315,662.065857 
	C590.906494,658.319946 615.070374,654.669250 639.272949,651.311279 
	C665.622131,647.655518 692.025513,644.390320 718.404114,640.946350 
	C737.688232,638.428650 756.960022,635.813171 776.257019,633.398621 
	C791.595398,631.479309 806.963440,629.797485 822.318542,628.011597 
	C844.122253,625.475708 865.917847,622.867126 887.732544,620.429626 
	C904.925049,618.508606 922.142822,616.814392 939.346375,614.991272 
	C957.536865,613.063721 975.715454,611.018433 993.915161,609.183228 
	C1008.483826,607.714111 1023.074097,606.457642 1037.658813,605.151733 
	C1060.031982,603.148376 1082.396606,601.031982 1104.787476,599.248352 
	C1124.200317,597.702026 1143.627808,596.159180 1163.079224,595.321350 
	C1189.530640,594.181763 1216.010132,593.682312 1242.480225,593.006470 
	C1245.279175,592.934998 1248.109253,593.421448 1250.900391,593.820129 
	C1260.630981,595.209839 1261.416016,595.362854 1259.887939,605.058655 
	C1257.357788,621.113647 1254.711182,637.275208 1250.329102,652.891113 
	C1234.528442,709.196838 1217.954834,765.285522 1201.845703,821.505554 
	C1201.338623,823.275757 1202.164307,825.977112 1203.300171,827.587524 
	C1225.452759,858.998779 1248.055664,890.098328 1269.817139,921.776245 
	C1276.348755,931.284302 1281.354980,942.048889 1285.704956,952.786743 
	C1289.857910,963.038208 1288.208130,963.788635 1279.566162,965.997314 
	C1261.396729,970.641235 1243.165771,975.201172 1224.750488,978.689209 
	C1197.160522,983.915100 1169.416260,988.350403 1141.688110,992.814392 
	C1121.173340,996.117065 1100.596680,999.049561 1080.017700,1001.935059 
	C1040.997070,1007.406494 1001.967468,1012.818481 962.918030,1018.080017 
	C929.798828,1022.542480 896.655273,1026.828491 863.506042,1031.063477 
	C828.862488,1035.489502 794.208496,1039.837524 759.541687,1044.077148 
	C728.513611,1047.872070 697.467896,1051.525146 666.418640,1055.143555 
	C637.345459,1058.531616 608.262329,1061.836182 579.174500,1065.095703 
	C554.881104,1067.817993 530.577759,1070.453125 506.272644,1073.068726 
	C482.128265,1075.667480 457.995544,1078.398804 433.821564,1080.690674 
	C412.121185,1082.748291 390.378754,1084.381470 368.640717,1086.013916 
	C358.683929,1086.761475 348.697937,1087.243652 338.716370,1087.495483 
	C331.875519,1087.668091 330.596802,1086.880493 330.998413,1080.276367 
	C332.016022,1063.543701 332.801453,1046.696899 335.478516,1030.187622 
	C339.864410,1003.140198 345.517822,976.291870 350.945984,949.422058 
	C354.168915,933.468140 358.125824,917.663086 361.414825,901.721497 
	C362.078888,898.502869 361.929657,894.752319 360.961365,891.615601 
	C346.014343,843.197327 330.828613,794.852722 315.823456,746.452271 
	C313.958496,740.436646 312.889404,734.178284 311.303101,728.070923 
	C309.882935,722.603271 311.393555,718.223389 316.589050,716.099731 
	C327.796906,711.518433 339.005219,706.792358 350.554504,703.232178 
	C362.915222,699.421875 375.667969,696.883423 388.650055,693.662476 
M500.612671,969.140686 
	C514.783203,958.424622 518.177551,943.454529 516.799194,926.897156 
	C515.224854,907.986328 507.028473,893.866943 486.458679,889.051514 
	C488.751495,887.339172 490.322815,886.196350 491.861633,885.011353 
	C501.376984,877.684570 507.720459,868.311035 508.918243,856.222961 
	C510.254364,842.738708 507.887665,829.612061 502.514221,817.239197 
	C495.876556,801.955139 484.282990,793.902588 467.149078,794.962952 
	C461.334595,795.322815 455.456177,795.252197 449.718628,796.118164 
	C439.721649,797.627014 429.780365,799.567200 419.899078,801.710693 
	C418.461487,802.022522 416.363953,804.536865 416.461121,805.897095 
	C418.084808,828.629456 420.071320,851.335571 421.852356,874.057251 
	C424.309937,905.411011 426.639801,936.774658 429.080170,968.129700 
	C429.578369,974.531006 430.323669,980.913086 431.000458,987.763123 
	C438.717346,987.135803 445.853210,986.853760 452.903442,985.922852 
	C469.706604,983.704224 485.853577,979.409607 500.612671,969.140686 
M801.730652,916.750000 
	C800.512512,900.203003 799.294373,883.655945 798.076233,867.108948 
	C798.403870,866.983337 798.731506,866.857727 799.059204,866.732117 
	C812.873291,891.819702 826.687439,916.907288 840.703125,942.360779 
	C850.487183,937.586731 859.792114,933.046509 869.292053,928.411072 
	C868.157166,926.372437 867.389954,924.914673 866.551208,923.499268 
	C853.063843,900.740601 839.618652,877.956543 826.013794,855.268250 
	C824.129883,852.126526 823.822571,849.361877 824.973328,845.900818 
	C834.775208,816.421204 844.437073,786.894897 854.121338,757.376282 
	C854.613525,755.876221 854.928772,754.318115 855.419128,752.430054 
	C846.316345,750.947510 837.808655,749.581543 829.309265,748.165527 
	C826.786987,747.745300 825.543335,748.410034 824.719971,751.173157 
	C815.563538,781.901062 806.230774,812.576355 796.919006,843.257751 
	C796.648132,844.150391 796.083618,844.953796 795.294312,846.513611 
	C793.017212,815.461975 790.810486,785.369324 788.581604,754.975037 
	C777.992676,757.134766 768.143982,759.143494 758.332703,761.144592 
	C763.256348,823.550476 768.130981,885.334961 773.036804,947.514893 
	C783.322144,946.298889 793.151428,945.136780 803.447205,943.919495 
	C802.863831,934.886536 802.308716,926.290283 801.730652,916.750000 
M1043.538208,906.896729 
	C1044.383423,906.290710 1045.228516,905.684753 1046.395874,904.847717 
	C1047.263062,910.790771 1048.044922,916.149780 1048.903931,922.036743 
	C1057.434082,920.880676 1065.586304,919.775818 1074.944092,918.507568 
	C1069.893677,854.300598 1064.868530,790.414429 1059.807861,726.076416 
	C1050.101074,727.890991 1041.205322,729.553955 1031.949219,731.284241 
	C1033.825195,751.726929 1035.664917,771.773010 1037.588135,792.730103 
	C1033.810913,791.098572 1031.268188,789.960632 1028.695557,788.895447 
	C1010.811035,781.490540 994.485474,787.078003 984.773438,803.875366 
	C979.762085,812.542603 977.434753,821.989197 976.588806,831.857910 
	C974.814453,852.558777 975.244751,873.113220 982.036621,893.009460 
	C988.013977,910.519653 1001.008606,919.344910 1018.314575,918.033081 
	C1027.722778,917.319946 1036.048706,913.896912 1043.538208,906.896729 
M894.621582,931.094238 
	C911.431091,935.407654 926.967407,934.300537 939.957397,919.810974 
	C941.575623,926.200317 943.050598,932.024170 944.662231,938.387634 
	C953.634521,935.716919 962.136108,933.186340 969.409851,931.021240 
	C967.429626,907.711060 965.688232,885.200745 963.539001,862.729431 
	C962.401184,850.832214 961.033203,838.916748 958.919128,827.162415 
	C955.432739,807.778259 947.359070,799.844788 927.992432,796.506531 
	C910.326172,793.461304 894.817139,798.751343 881.371521,810.301758 
	C880.332458,811.194336 879.408081,813.671875 879.908813,814.674255 
	C883.678345,822.221130 887.818604,829.582825 891.443970,836.266724 
	C898.916199,833.133850 905.715210,829.698853 912.886658,827.453064 
	C919.123779,825.499939 925.174744,826.844055 929.305969,832.686829 
	C933.598022,838.757019 934.213379,845.736511 934.591858,853.320801 
	C933.408020,852.902588 932.785828,852.756104 932.231018,852.476135 
	C915.507507,844.036377 901.739990,845.976379 888.545410,858.949646 
	C876.508240,870.784912 874.486633,885.858582 876.420715,901.508118 
	C877.904602,913.514343 881.006897,925.284424 894.621582,931.094238 
M1120.905273,909.971985 
	C1143.353516,911.309448 1166.996216,902.766785 1172.656006,872.400696 
	C1178.150635,842.920654 1174.710571,814.087524 1163.398682,786.340454 
	C1159.820190,777.563049 1152.844116,771.908203 1143.607666,769.396301 
	C1134.363037,766.882019 1125.111328,767.405579 1116.060913,770.255188 
	C1100.605103,775.121399 1092.333984,787.123840 1087.505737,801.430847 
	C1078.143188,829.174438 1080.344727,856.850525 1090.407104,883.979736 
	C1095.516724,897.755859 1104.687256,907.492615 1120.905273,909.971985 
M538.920715,954.522278 
	C546.214600,966.261475 555.744812,974.889832 570.305664,975.520325 
	C586.286682,976.212219 600.726379,972.385803 611.307312,959.293823 
	C612.264221,958.109863 613.114746,955.703979 612.555298,954.615967 
	C609.094604,947.885559 605.216003,941.370056 601.194885,934.287903 
	C594.413696,942.442017 586.009338,945.853638 576.288513,946.174866 
	C568.804321,946.422241 563.861572,943.377014 561.153687,936.373962 
	C559.672668,932.543884 559.064026,928.369202 558.149231,924.330139 
	C557.536621,921.625000 558.743286,920.504761 561.496216,920.131653 
	C573.351440,918.524780 585.184937,916.754822 597.017700,914.986389 
	C602.905396,914.106506 608.774536,913.101807 615.163635,912.070984 
	C614.726929,906.589783 614.672485,901.424438 613.844238,896.386353 
	C611.721436,883.473633 610.520813,870.223877 606.665100,857.819702 
	C598.322937,830.982239 568.001343,823.645142 547.401428,842.781128 
	C536.425049,852.977661 530.439087,866.022949 529.259460,880.627441 
	C528.207764,893.648132 528.390869,906.883972 529.389832,919.920593 
	C530.288147,931.643555 532.818176,943.284973 538.920715,954.522278 
M661.685913,961.050842 
	C665.699280,960.251465 669.712708,959.452087 673.453674,958.706970 
	C668.063904,896.563599 662.723389,834.987671 657.358948,773.136780 
	C647.921875,774.718872 638.523621,776.294495 628.996277,777.891724 
	C634.087708,840.406189 639.129639,902.312500 644.206421,964.646606 
	C650.123657,963.418335 655.482727,962.305908 661.685913,961.050842 
M746.297668,950.113770 
	C745.791748,944.320496 745.302979,938.525757 744.777039,932.734253 
	C742.115784,903.428223 739.438110,874.123657 736.781372,844.817200 
	C736.034058,836.573181 735.338135,828.324524 734.568604,819.504272 
	C725.197327,821.113159 716.175781,822.661987 707.356628,824.176086 
	C711.001953,868.584351 714.575256,912.114319 718.211182,956.407715 
	C727.719116,954.453796 736.777527,952.592224 746.297668,950.113770 
M699.193054,771.198120 
	C700.414185,783.638184 701.635376,796.078247 702.893677,808.896606 
	C714.909729,807.016663 726.254150,805.241821 737.682312,803.453857 
	C736.279968,790.600952 734.955627,778.462524 733.533691,765.429993 
	C722.047485,767.301819 710.974243,769.106445 699.193054,771.198120 
z"/>
<path fill="#0494D9" opacity="1.000000" stroke="none" 
	d="
M900.692200,526.407593 
	C894.882202,498.691223 886.892639,472.191101 872.960754,447.794983 
	C853.878296,414.379852 827.030945,389.973297 789.919006,378.429657 
	C746.285706,364.857513 705.282532,372.085754 667.487305,397.038940 
	C636.943298,417.204803 616.545227,445.874634 601.990784,478.990448 
	C587.699951,511.506348 580.374023,545.606140 578.995728,581.053284 
	C578.867737,584.343628 579.894592,586.484131 582.358887,588.719604 
	C592.745972,598.141846 596.338379,610.086121 593.291626,623.599976 
	C590.073853,637.872620 580.678345,646.934631 566.718201,650.630981 
	C549.999390,655.057800 532.580261,646.360046 525.208374,630.633789 
	C518.024292,615.308105 522.614685,596.769592 536.510193,586.399414 
	C539.127441,584.446167 539.915955,582.544250 540.070862,579.441467 
	C542.846680,523.830200 558.526672,472.708801 594.248474,429.082092 
	C626.837158,389.281830 668.047729,362.724640 718.674927,351.993134 
	C767.397400,341.665375 813.686523,347.704132 856.075439,375.124939 
	C888.133057,395.862579 908.977356,425.644196 923.196838,460.535095 
	C932.150940,482.506470 937.875366,505.360565 941.891052,528.673767 
	C942.571106,532.621704 943.932068,535.391113 947.597717,537.737122 
	C961.443054,546.597961 967.205078,564.064209 961.881775,579.348633 
	C956.337097,595.268433 941.126282,605.163757 924.177368,603.877075 
	C908.667175,602.699585 895.233276,590.421265 892.010132,574.785950 
	C889.774780,563.942322 892.142212,554.126099 898.987244,545.755188 
	C902.166199,541.867432 903.553040,538.404541 902.094971,533.658081 
	C901.417664,531.453308 901.196167,529.108521 900.692200,526.407593 
z"/>
<path fill="#0394D9" opacity="1.000000" stroke="none" 
	d="
M1269.513916,724.262268 
	C1278.274780,720.546082 1288.006958,723.329956 1293.406128,731.599426 
	C1296.516724,736.363708 1298.475342,741.879944 1300.894531,746.936584 
	C1304.127686,743.919373 1307.506104,740.230896 1311.411621,737.227722 
	C1321.081299,729.792053 1331.787354,726.976990 1343.748413,731.083984 
	C1352.515503,734.094299 1356.244751,740.534180 1354.593872,749.672852 
	C1352.455200,761.512695 1347.267822,772.073853 1340.975342,782.134460 
	C1331.213867,797.740967 1320.248657,812.374817 1305.190308,823.365356 
	C1293.408447,831.964478 1287.221436,830.597351 1279.992188,817.928772 
	C1270.685181,801.619019 1266.139648,783.728821 1264.204712,765.296204 
	C1263.139038,755.143188 1263.621948,744.755554 1264.295166,734.532227 
	C1264.521973,731.089539 1267.487793,727.827209 1269.513916,724.262268 
z"/>
<path fill="#0494D9" opacity="1.000000" stroke="none" 
	d="
M244.981934,973.064575 
	C235.292862,969.484985 225.846802,966.354065 216.802765,962.321533 
	C212.509262,960.407166 208.288177,957.104736 209.061234,951.244568 
	C209.835388,945.376221 213.040497,940.533508 218.565353,938.792419 
	C224.579742,936.897034 231.073410,936.522400 236.271500,935.664124 
	C234.980133,929.129456 232.819656,921.654114 232.189240,914.051880 
	C231.535782,906.171814 235.556595,899.609558 241.260239,894.298523 
	C244.367920,891.404724 248.347992,889.772095 252.226212,892.035095 
	C257.895660,895.343323 263.915375,898.631104 268.412720,903.261292 
	C282.850372,918.125366 293.375824,935.573730 299.631226,955.422485 
	C304.082611,969.546997 299.389984,976.098816 284.463806,976.936279 
	C271.247040,977.677856 258.249634,976.106934 244.981934,973.064575 
z"/>
<path fill="#0695D8" opacity="1.000000" stroke="none" 
	d="
M1377.594482,841.775757 
	C1376.558716,845.460205 1376.325073,849.719971 1374.077271,851.945068 
	C1360.102661,865.778320 1342.854980,873.036926 1323.417236,874.883240 
	C1317.021973,875.490723 1314.266357,872.928833 1314.275269,866.517883 
	C1314.301392,847.676880 1320.024414,830.477539 1331.293579,815.433594 
	C1336.568726,808.391418 1345.177124,810.677307 1347.588989,819.687561 
	C1348.645996,823.635803 1347.766968,828.102295 1347.766968,832.786438 
	C1359.201172,829.491943 1370.210815,829.234619 1377.594482,841.775757 
z"/>
<path fill="#0695D8" opacity="1.000000" stroke="none" 
	d="
M316.992615,853.070251 
	C318.974884,865.687866 318.013519,877.709839 315.064270,889.612854 
	C314.588501,891.533020 313.968384,893.446960 313.160828,895.249939 
	C310.572144,901.029541 307.464294,902.418579 301.569214,899.974670 
	C289.597931,895.011902 280.226624,886.497314 271.837311,876.943115 
	C268.144043,872.737000 264.883606,867.976318 262.298950,863.013184 
	C258.643890,855.994385 262.268463,849.897461 270.228241,850.212280 
	C275.073578,850.403931 279.828308,852.887878 285.050934,854.471680 
	C285.542755,852.508240 286.123932,849.352600 287.130676,846.339111 
	C289.377136,839.614746 293.810181,834.905212 300.714478,832.865356 
	C306.471771,831.164368 310.276428,832.425964 312.674255,837.879333 
	C314.717407,842.526062 315.582428,847.690857 316.992615,853.070251 
z"/>
<path fill="#0C95D5" opacity="1.000000" stroke="none" 
	d="
M718.342651,1134.254150 
	C721.491943,1132.544189 722.521057,1130.798340 721.334961,1127.242065 
	C719.312012,1121.177002 719.553772,1115.169922 724.268127,1109.938721 
	C728.908752,1104.789185 734.355591,1103.338013 739.799194,1106.267334 
	C745.129517,1109.135742 747.852356,1115.549438 745.582458,1121.718506 
	C744.300171,1125.203491 742.222229,1128.685669 739.637268,1131.319824 
	C737.051025,1133.955078 736.281860,1135.881104 738.579956,1138.908569 
	C739.939453,1140.699585 740.890442,1142.800781 742.399292,1145.409302 
	C743.119995,1142.798584 743.184387,1140.784912 744.168518,1139.448486 
	C745.420044,1137.748901 747.704834,1135.249878 749.023804,1135.531738 
	C750.930542,1135.939209 753.729736,1138.518433 753.747253,1140.196045 
	C753.794556,1144.732910 753.023315,1149.420044 751.690735,1153.776733 
	C750.877014,1156.437012 750.654358,1158.309692 752.305725,1160.598511 
	C753.851440,1162.741089 755.577271,1165.092896 756.036865,1167.572632 
	C756.404785,1169.557739 755.584778,1173.071289 754.222778,1173.744995 
	C752.431824,1174.630981 749.103210,1174.108276 747.332886,1172.888916 
	C745.299194,1171.488159 744.246399,1168.663208 742.659119,1166.295166 
	C735.196045,1171.255127 727.471252,1174.543091 718.304382,1172.082764 
	C710.342957,1169.946045 704.873352,1165.298950 703.388428,1157.094238 
	C702.050110,1149.700195 705.235962,1143.802002 711.074585,1139.317505 
	C713.315796,1137.596069 715.712524,1136.077148 718.342651,1134.254150 
M733.694092,1159.265381 
	C734.353394,1157.982910 735.907043,1156.256958 735.526672,1155.489990 
	C733.062927,1150.520752 730.177856,1145.760376 727.270325,1140.649414 
	C723.793701,1142.989136 720.172668,1144.504150 717.968872,1147.184570 
	C716.005310,1149.572510 714.428589,1153.406738 714.815857,1156.318726 
	C715.320679,1160.114014 719.080505,1162.296509 723.088074,1161.972778 
	C726.451172,1161.701050 729.738953,1160.495605 733.694092,1159.265381 
M732.973694,1125.140503 
	C734.173706,1123.225708 735.834900,1121.433594 736.389343,1119.347290 
	C736.689880,1118.216187 735.104919,1116.583862 734.370605,1115.177734 
	C733.246338,1116.144897 731.235413,1117.061768 731.177124,1118.089355 
	C731.044434,1120.431152 731.869263,1122.827393 732.973694,1125.140503 
z"/>
<path fill="#0B95D5" opacity="1.000000" stroke="none" 
	d="
M803.515686,1172.563965 
	C801.775757,1169.796509 799.332153,1167.229370 799.202698,1164.550537 
	C798.696899,1154.081421 798.922302,1143.576782 798.878967,1133.085449 
	C798.877563,1132.752930 798.856201,1132.406982 798.934448,1132.089600 
	C799.806152,1128.557495 800.197937,1124.208862 804.946472,1124.139771 
	C809.339233,1124.075439 811.053284,1127.451294 811.189453,1131.105835 
	C814.757263,1129.429443 818.192627,1126.776245 821.864136,1126.394409 
	C825.254089,1126.041870 828.897400,1128.125366 832.254700,1130.254517 
	C832.836060,1129.977417 833.432678,1129.728271 833.996521,1129.419312 
	C846.840271,1122.379395 855.763855,1127.318604 857.045166,1141.851318 
	C857.803040,1150.447388 859.165649,1158.993286 860.379883,1167.544434 
	C860.962097,1171.644653 859.160583,1174.213013 855.344177,1174.745728 
	C851.398987,1175.296509 849.225464,1173.000854 848.769775,1168.993652 
	C847.830933,1160.737549 846.978271,1152.462524 845.657227,1144.265137 
	C845.301086,1142.055298 843.745178,1138.733521 842.118286,1138.309814 
	C838.902710,1137.472534 833.874756,1142.651001 834.055847,1145.933716 
	C834.358032,1151.410156 834.988464,1156.868042 835.443359,1162.336792 
	C835.650024,1164.820923 835.837280,1167.310303 835.909790,1169.801025 
	C836.026611,1173.814819 834.027100,1176.264648 830.009766,1176.255249 
	C826.264648,1176.246582 824.410217,1173.896240 824.158508,1170.154175 
	C823.511230,1160.531128 822.790100,1150.913208 822.087280,1141.294067 
	C822.029663,1140.504883 821.887207,1139.722046 821.690674,1138.221924 
	C815.982910,1142.387939 810.782166,1145.987305 811.161926,1153.680908 
	C811.350464,1157.500610 811.168091,1161.340088 811.110779,1165.169922 
	C811.022156,1171.096191 810.002869,1172.141479 803.515686,1172.563965 
z"/>
<path fill="#0C95D5" opacity="1.000000" stroke="none" 
	d="
M1184.932617,1124.017456 
	C1184.875854,1138.457642 1184.772217,1152.419922 1184.824829,1166.381714 
	C1184.844727,1171.677612 1181.031616,1174.301147 1176.265259,1172.305542 
	C1174.686890,1171.644653 1172.567627,1171.544189 1170.893188,1171.967896 
	C1162.725708,1174.034668 1154.993042,1173.621582 1148.129150,1168.301514 
	C1139.721436,1161.784790 1137.698975,1147.939087 1143.403442,1137.267700 
	C1148.406616,1127.908447 1159.314087,1123.547119 1169.954102,1126.655396 
	C1170.865967,1126.921875 1171.770386,1127.213379 1172.922241,1127.568237 
	C1173.391113,1121.476807 1173.748657,1115.677490 1174.315186,1109.898560 
	C1174.661865,1106.361572 1175.735107,1103.165283 1180.290039,1103.535767 
	C1184.974609,1103.916992 1185.728638,1107.328369 1185.640259,1111.073242 
	C1185.541992,1115.231689 1185.189575,1119.384277 1184.932617,1124.017456 
M1151.084717,1148.783691 
	C1151.714478,1151.466187 1151.822754,1154.430298 1153.085815,1156.771118 
	C1155.513184,1161.269531 1161.265381,1163.146484 1166.041016,1161.571167 
	C1170.753662,1160.016602 1172.938843,1156.923828 1172.228760,1151.784668 
	C1171.892212,1149.348511 1172.177368,1146.819946 1172.250244,1144.335205 
	C1172.382080,1139.841797 1169.814209,1137.684326 1165.772461,1136.937012 
	C1158.010986,1135.501831 1153.752319,1138.763062 1151.084717,1148.783691 
z"/>
<path fill="#0C95D5" opacity="1.000000" stroke="none" 
	d="
M1001.084229,1133.000000 
	C1001.056519,1125.173340 1001.178406,1117.841675 1000.937012,1110.521973 
	C1000.802185,1106.433105 1001.863098,1103.395752 1006.315308,1103.158325 
	C1010.741272,1102.922485 1012.579102,1106.165527 1012.785156,1109.912109 
	C1013.104614,1115.720581 1012.824219,1121.561523 1012.819092,1127.388794 
	C1012.818237,1128.371216 1012.922668,1129.353516 1012.993408,1130.599976 
	C1016.019714,1129.264771 1018.747314,1127.670776 1021.690186,1126.833496 
	C1032.180054,1123.849121 1039.074585,1128.746216 1040.033936,1139.488159 
	C1040.861084,1148.749878 1041.838745,1157.997925 1042.710449,1167.255859 
	C1043.025879,1170.605103 1041.340820,1172.689575 1038.181152,1173.416626 
	C1034.766968,1174.202026 1032.039062,1172.873535 1031.171631,1169.489258 
	C1030.103882,1165.324097 1029.348633,1161.026001 1029.006470,1156.741699 
	C1028.623047,1151.939575 1028.931152,1147.086426 1028.792114,1142.259644 
	C1028.665527,1137.860229 1026.521973,1136.397583 1022.690491,1138.613770 
	C1017.146790,1141.820190 1013.506775,1146.646973 1012.966064,1153.299316 
	C1012.602661,1157.770752 1012.609009,1162.281860 1012.049133,1166.724854 
	C1011.552673,1170.665161 1008.925537,1172.759399 1004.988525,1171.830322 
	C1001.345154,1170.970337 1000.166565,1168.694336 1000.474243,1164.437500 
	C1001.216675,1154.163940 1000.944824,1143.817261 1001.084229,1133.000000 
z"/>
<path fill="#0C95D5" opacity="1.000000" stroke="none" 
	d="
M1108.886719,1160.027832 
	C1108.637085,1163.301758 1108.481445,1166.127808 1108.153564,1168.933716 
	C1107.761841,1172.283813 1105.624146,1173.923340 1102.399292,1173.947388 
	C1099.150757,1173.971680 1096.880249,1172.425415 1096.777710,1168.945190 
	C1096.602173,1162.989136 1096.560547,1157.026489 1096.601074,1151.067505 
	C1096.640503,1145.251099 1096.964722,1139.435425 1096.948486,1133.620117 
	C1096.938477,1130.022217 1096.619873,1126.268433 1100.995605,1125.056641 
	C1105.629395,1123.773193 1108.017944,1126.607422 1108.996826,1129.994385 
	C1112.894043,1128.573975 1116.477661,1126.502808 1120.255371,1126.049438 
	C1128.281006,1125.086182 1132.685303,1128.815796 1134.174072,1136.831787 
	C1134.537354,1138.787231 1134.671265,1140.792114 1134.808105,1142.781372 
	C1135.342896,1150.559692 1135.726562,1158.350220 1136.391357,1166.117065 
	C1136.733521,1170.114990 1135.901855,1173.142578 1131.513550,1173.940552 
	C1127.567871,1174.657959 1125.202637,1172.561768 1124.774048,1167.449097 
	C1124.068237,1159.028564 1123.719482,1150.578369 1123.212646,1142.141113 
	C1123.116577,1140.542847 1122.985474,1138.946655 1122.870728,1137.353149 
	C1115.064819,1138.111694 1109.512329,1147.236938 1108.886719,1160.027832 
z"/>
<path fill="#0C95D5" opacity="1.000000" stroke="none" 
	d="
M587.880310,1126.622070 
	C593.039001,1129.083496 594.668030,1133.422974 595.105957,1138.201538 
	C595.999634,1147.953735 596.642395,1157.729980 597.295288,1167.502441 
	C597.542419,1171.201416 595.898254,1173.671387 591.990356,1173.966553 
	C588.188721,1174.253662 585.970581,1172.428467 585.719604,1168.533813 
	C585.175293,1160.088013 584.648010,1151.640991 584.163513,1143.191528 
	C584.053833,1141.279175 584.147339,1139.355225 584.147339,1137.436523 
	C583.615234,1137.079834 583.083130,1136.723022 582.551025,1136.366333 
	C580.150146,1138.298218 577.360413,1139.904663 575.420471,1142.222290 
	C569.321533,1149.508545 570.125366,1158.676758 568.965271,1167.339600 
	C568.676025,1169.499390 567.328857,1172.240112 565.596313,1173.336304 
	C561.795715,1175.740845 557.446411,1172.753174 557.148499,1167.547607 
	C556.825745,1161.909668 557.005371,1156.234619 557.151611,1150.580566 
	C557.302002,1144.769287 557.773926,1138.966187 557.915710,1133.155029 
	C557.998108,1129.776367 557.496887,1126.132324 561.808838,1125.035400 
	C566.214844,1123.914551 568.783325,1126.145386 569.835571,1131.034424 
	C575.244324,1126.583984 580.956482,1124.604004 587.880310,1126.622070 
z"/>
<path fill="#0C95D5" opacity="1.000000" stroke="none" 
	d="
M544.657776,1130.257812 
	C551.115479,1137.277832 550.139832,1143.870239 541.833496,1148.308594 
	C535.122620,1151.894287 528.078552,1154.856689 521.115479,1158.126953 
	C524.812439,1162.464600 532.755798,1163.746704 539.001770,1161.151978 
	C540.686584,1160.452148 542.263672,1159.079590 543.965820,1158.940430 
	C546.044373,1158.770508 549.869141,1159.257324 550.013855,1160.017212 
	C550.447388,1162.293823 550.257812,1166.228271 548.873413,1167.028931 
	C544.388428,1169.622314 539.397583,1171.873291 534.337952,1172.771973 
	C530.281677,1173.492310 525.675537,1172.629761 521.604126,1171.458862 
	C510.725769,1168.330322 505.716614,1158.452148 508.402740,1146.480835 
	C512.444885,1128.466431 527.336121,1121.651245 544.657776,1130.257812 
M525.922729,1138.001465 
	C523.655945,1140.595947 521.389160,1143.190430 519.122375,1145.784912 
	C519.511475,1146.226929 519.900635,1146.669067 520.289734,1147.111084 
	C525.817444,1144.551636 531.345093,1141.992310 536.872803,1139.432861 
	C536.744446,1138.865479 536.616089,1138.298218 536.487732,1137.730835 
	C533.212402,1137.730835 529.937073,1137.730835 525.922729,1138.001465 
z"/>
<path fill="#0C95D5" opacity="1.000000" stroke="none" 
	d="
M1273.501221,1127.245850 
	C1279.433472,1127.683838 1285.078369,1127.773193 1290.500244,1128.918945 
	C1294.979736,1129.865601 1297.317749,1133.638794 1297.600952,1138.164795 
	C1297.865112,1142.389404 1295.588745,1145.570557 1291.959473,1147.435791 
	C1284.748657,1151.141602 1277.399292,1154.577637 1270.087158,1158.134888 
	C1273.481934,1162.531494 1281.680786,1163.824463 1288.111572,1161.020020 
	C1289.632812,1160.356567 1291.085083,1159.011719 1292.595825,1158.971191 
	C1294.809204,1158.911621 1298.280518,1159.087769 1298.961426,1160.365112 
	C1299.811035,1161.959106 1299.114258,1166.055054 1297.783447,1166.827271 
	C1293.306030,1169.425171 1288.398926,1171.861206 1283.371216,1172.753296 
	C1279.164307,1173.499634 1274.370605,1172.623291 1270.164917,1171.366943 
	C1258.896362,1168.001221 1254.197998,1157.823364 1257.593872,1144.763794 
	C1259.769165,1136.398071 1264.485840,1130.073486 1273.501221,1127.245850 
M1271.430420,1140.866211 
	C1270.393433,1142.642700 1269.356323,1144.419312 1268.319336,1146.195801 
	C1268.589355,1146.497070 1268.859253,1146.798340 1269.129272,1147.099609 
	C1274.661987,1144.483276 1280.194824,1141.867065 1286.713135,1138.784668 
	C1280.509766,1136.253540 1275.932739,1136.127686 1271.430420,1140.866211 
z"/>
<path fill="#0C95D5" opacity="1.000000" stroke="none" 
	d="
M902.281189,1169.392700 
	C896.000671,1172.585693 889.651245,1173.865479 883.086548,1172.834717 
	C867.139526,1170.330444 860.248901,1158.187622 865.667419,1142.598999 
	C871.020508,1127.198853 884.429504,1123.702637 897.962219,1128.747437 
	C901.980103,1130.245361 904.555298,1133.218140 905.031006,1137.632202 
	C905.523254,1142.200195 903.144287,1145.452881 899.428772,1147.409912 
	C892.237976,1151.197754 884.835571,1154.583740 877.513184,1158.140137 
	C880.779724,1162.510376 888.933167,1163.838623 895.415771,1161.057861 
	C896.942139,1160.403198 898.381958,1159.174683 899.933228,1159.040894 
	C902.047729,1158.858521 904.230896,1159.473145 906.384644,1159.745972 
	C906.038635,1162.185913 905.904358,1164.686035 905.238342,1167.035278 
	C904.985779,1167.926147 903.508484,1168.469971 902.281189,1169.392700 
M881.441956,1144.904419 
	C885.414368,1142.976807 889.386780,1141.049072 893.976929,1138.821655 
	C884.175781,1135.051514 877.491943,1138.381592 876.571045,1146.861328 
	C878.029053,1146.272339 879.387817,1145.723389 881.441956,1144.904419 
z"/>
<path fill="#0C95D5" opacity="1.000000" stroke="none" 
	d="
M1049.641113,1141.920410 
	C1056.952637,1128.299072 1070.050659,1123.401245 1082.920654,1129.180908 
	C1088.323242,1131.607056 1088.817017,1133.355103 1087.882690,1139.099487 
	C1086.517456,1147.491821 1085.967529,1155.953247 1090.069824,1163.960693 
	C1091.418823,1166.593994 1093.032959,1169.410767 1089.840454,1171.965698 
	C1086.931274,1174.293823 1084.458740,1172.961182 1081.655884,1171.389526 
	C1080.265503,1170.609863 1078.047729,1171.088867 1076.242432,1171.309814 
	C1072.032593,1171.825195 1067.793091,1173.286377 1063.661133,1172.997437 
	C1055.256714,1172.410278 1049.295898,1166.856445 1048.433350,1158.480225 
	C1047.886719,1153.171143 1049.069946,1147.684082 1049.641113,1141.920410 
M1060.000977,1156.829834 
	C1062.878296,1163.455078 1068.815186,1165.246216 1074.764282,1161.078369 
	C1075.703613,1160.420288 1076.420166,1158.755615 1076.416138,1157.559082 
	C1076.398682,1152.431030 1075.948242,1147.305176 1075.894165,1142.176025 
	C1075.838135,1136.853882 1074.521484,1135.876343 1069.371948,1137.767822 
	C1062.328369,1140.355225 1059.319336,1146.130371 1060.000977,1156.829834 
z"/>
<path fill="#0B95D5" opacity="1.000000" stroke="none" 
	d="
M460.922974,1164.786011 
	C461.008118,1174.167480 458.854858,1175.508911 450.181580,1172.263550 
	C448.919128,1171.791260 447.279419,1172.313232 445.815521,1172.396362 
	C442.181885,1172.602783 438.509186,1173.262695 434.924286,1172.939697 
	C428.251984,1172.338745 423.654663,1168.027344 423.109894,1161.416260 
	C422.387360,1152.648193 422.221252,1143.822266 422.165649,1135.019043 
	C422.150726,1132.656982 422.750000,1129.626221 424.271698,1128.116455 
	C425.648529,1126.750366 429.250244,1126.001831 430.811249,1126.875122 
	C432.592651,1127.871704 434.081146,1130.933350 434.157410,1133.150513 
	C434.396820,1140.108276 433.557465,1147.103638 433.803558,1154.060791 
	C434.080627,1161.893188 435.763672,1162.977417 443.467041,1161.737061 
	C445.100189,1161.474121 446.699127,1160.999023 448.947327,1160.473755 
	C448.947327,1156.469116 448.896271,1152.355469 448.960236,1148.243652 
	C449.040558,1143.081055 449.144501,1137.916992 449.371857,1132.759277 
	C449.545288,1128.824951 451.008392,1125.836914 455.639954,1126.113159 
	C460.156494,1126.382690 461.280640,1129.205933 461.190063,1133.320557 
	C460.962677,1143.649292 460.992249,1153.983765 460.922974,1164.786011 
z"/>
<path fill="#0C95D5" opacity="1.000000" stroke="none" 
	d="
M414.943604,1159.693604 
	C408.129639,1176.277344 391.072235,1176.123169 383.002045,1168.708008 
	C375.178711,1161.519653 373.534698,1148.335938 379.519470,1137.963989 
	C384.630188,1129.107056 394.955933,1124.904419 404.252167,1127.897827 
	C412.861847,1130.670288 418.614624,1142.032471 416.670044,1152.541504 
	C416.248077,1154.822144 415.603912,1157.061646 414.943604,1159.693604 
M396.403290,1162.088135 
	C401.063110,1161.902222 403.818268,1159.097168 404.812592,1154.957031 
	C406.065552,1149.740234 406.370270,1144.226562 402.309509,1140.020874 
	C401.071869,1138.738892 397.999390,1138.322998 396.071533,1138.783813 
	C390.456757,1140.125732 387.544647,1145.798950 387.912445,1153.463379 
	C388.159332,1158.606689 390.343445,1161.057983 396.403290,1162.088135 
z"/>
<path fill="#0C95D5" opacity="1.000000" stroke="none" 
	d="
M1234.528809,1173.446533 
	C1229.240845,1172.676270 1224.266846,1172.274414 1219.563721,1170.926758 
	C1216.069580,1169.925537 1213.911133,1166.801147 1215.419312,1163.079102 
	C1216.844727,1159.561523 1220.233154,1160.357910 1223.261963,1160.937378 
	C1226.976685,1161.648071 1230.709229,1162.554443 1234.456299,1162.672974 
	C1236.103638,1162.724976 1237.805908,1161.039917 1239.483276,1160.143799 
	C1238.290283,1158.719727 1237.359985,1156.848022 1235.850952,1155.962402 
	C1232.425293,1153.951904 1228.659058,1152.532959 1225.132202,1150.681030 
	C1218.705322,1147.306274 1216.178101,1142.831909 1216.997437,1136.680908 
	C1217.677612,1131.573608 1221.531494,1127.931274 1228.703369,1126.879883 
	C1234.095093,1126.089722 1239.657959,1125.910156 1245.092285,1126.264160 
	C1247.057861,1126.392212 1250.078247,1128.589233 1250.470581,1130.326904 
	C1251.059448,1132.935791 1250.208252,1136.190674 1248.990967,1138.695435 
	C1248.613403,1139.472412 1244.565430,1139.474731 1243.052124,1138.502197 
	C1238.479004,1135.563232 1233.223022,1135.354492 1228.068237,1139.290405 
	C1229.939575,1140.574707 1231.522095,1141.860229 1233.279785,1142.826538 
	C1237.209106,1144.986450 1241.405518,1146.708740 1245.159302,1149.127319 
	C1249.393066,1151.855103 1252.220947,1155.651733 1251.532959,1161.200073 
	C1250.827759,1166.887329 1247.166504,1170.000000 1242.225708,1171.827148 
	C1239.923340,1172.678589 1237.388550,1172.901367 1234.528809,1173.446533 
z"/>
<path fill="#0C95D5" opacity="1.000000" stroke="none" 
	d="
M364.128357,1148.820557 
	C369.020660,1152.132446 372.067932,1156.161377 370.902893,1161.997925 
	C369.722992,1167.908936 365.364014,1170.818237 359.916290,1172.379761 
	C353.316254,1174.271362 346.732056,1174.176392 340.351929,1171.618774 
	C336.845062,1170.213257 333.291168,1168.041260 334.752563,1163.530273 
	C336.279633,1158.816528 340.335266,1160.761597 343.705780,1161.128662 
	C347.895233,1161.584839 352.105042,1161.944580 356.313751,1162.057007 
	C357.139343,1162.078979 358.700623,1160.769043 358.685516,1160.101562 
	C358.660950,1159.015625 357.880798,1157.480713 356.955902,1156.962158 
	C352.903137,1154.689941 348.647125,1152.784302 344.533600,1150.615234 
	C338.590515,1147.481201 335.521027,1142.599609 336.197937,1137.627319 
	C336.970734,1131.950562 340.713593,1128.046753 347.766510,1126.977539 
	C353.318085,1126.135864 359.042786,1126.002563 364.657806,1126.262573 
	C366.480255,1126.346924 369.439667,1128.465210 369.696442,1130.014893 
	C370.171783,1132.883301 369.364258,1136.140259 368.315369,1138.945557 
	C368.089569,1139.549438 363.766083,1139.750854 362.710327,1138.721680 
	C357.774170,1133.910156 353.035553,1136.742065 348.193634,1137.773926 
	C347.938324,1138.369141 347.682983,1138.964355 347.427643,1139.559570 
	C352.889130,1142.586548 358.350616,1145.613525 364.128357,1148.820557 
z"/>
<path fill="#0C95D5" opacity="1.000000" stroke="none" 
	d="
M984.780518,1140.217285 
	C982.985901,1139.241333 981.608276,1138.234619 980.068481,1137.671753 
	C975.757629,1136.095947 971.807190,1136.359619 969.259094,1140.812622 
	C967.699341,1143.538208 966.237976,1146.340698 964.994751,1149.221924 
	C963.344971,1153.045410 963.562500,1156.940308 966.668152,1159.851807 
	C969.875610,1162.858887 973.925354,1163.875244 978.242310,1162.271851 
	C980.725037,1161.349609 983.050537,1159.520996 985.555725,1159.291870 
	C987.627747,1159.102417 990.384888,1160.152954 991.820496,1161.638184 
	C992.661194,1162.507812 992.233337,1166.155273 991.131714,1167.096069 
	C984.604980,1172.670410 976.935181,1175.087646 968.417236,1172.901611 
	C960.601318,1170.895630 955.310486,1166.048340 953.316467,1157.953491 
	C950.873474,1148.036011 959.143555,1131.265747 968.539368,1127.243408 
	C974.445374,1124.714844 985.645813,1126.712402 989.989563,1131.529663 
	C991.182983,1132.853271 992.104248,1136.164795 991.340698,1137.125000 
	C990.007935,1138.801147 987.271545,1139.361206 984.780518,1140.217285 
z"/>
<path fill="#0C95D5" opacity="1.000000" stroke="none" 
	d="
M481.695404,1171.381348 
	C476.857819,1160.660767 472.310730,1150.166748 467.783569,1139.664307 
	C467.060455,1137.986816 466.455292,1136.258789 465.745728,1134.575195 
	C464.263397,1131.057861 465.059631,1128.340332 468.640808,1126.794067 
	C472.234772,1125.242310 475.014252,1126.707397 476.461731,1129.971436 
	C478.948853,1135.579712 481.011230,1141.375610 483.280243,1147.081421 
	C483.924652,1148.702026 484.667175,1150.283569 485.826569,1152.941895 
	C489.129333,1144.953003 492.013947,1137.937988 494.930725,1130.936279 
	C496.400970,1127.406982 498.839203,1125.425903 502.752441,1126.978882 
	C505.905548,1128.230225 507.657837,1130.586548 506.140503,1134.098877 
	C501.002930,1145.990967 495.925781,1157.914185 490.481079,1169.665771 
	C488.814697,1173.262451 485.454163,1173.693604 481.695404,1171.381348 
z"/>
<path fill="#0C95D5" opacity="1.000000" stroke="none" 
	d="
M626.620483,1136.550537 
	C626.680237,1135.605591 626.566772,1135.044312 626.757263,1134.619141 
	C627.827087,1132.230713 628.596191,1128.237061 630.172424,1127.877319 
	C632.790527,1127.279541 635.943176,1129.023315 639.393250,1129.916016 
	C643.304016,1128.875610 648.166992,1127.266846 653.157410,1126.354126 
	C657.160767,1125.621948 660.600891,1127.417114 661.795776,1131.456543 
	C663.211731,1136.243042 664.304932,1141.414917 660.564331,1145.675659 
	C657.940796,1148.663818 653.097595,1147.257568 651.832275,1143.422607 
	C651.267029,1141.709473 651.022949,1139.890381 650.637146,1138.137817 
	C643.025635,1138.399170 637.955750,1143.562988 637.937073,1150.999878 
	C637.923645,1156.323975 637.894348,1161.648682 637.952881,1166.972168 
	C637.998718,1171.135376 636.306946,1173.823975 631.895447,1173.779297 
	C627.505798,1173.734985 626.440247,1170.622314 626.445679,1166.940796 
	C626.460327,1156.959595 626.536133,1146.978271 626.620483,1136.550537 
z"/>
<path fill="#0C95D5" opacity="1.000000" stroke="none" 
	d="
M938.406738,1141.499756 
	C937.303833,1140.073364 936.162903,1138.084351 935.240356,1138.181030 
	C930.038696,1138.725708 925.068420,1144.691162 925.027466,1149.968994 
	C924.982178,1155.792114 924.997009,1161.615845 925.020874,1167.439209 
	C925.036255,1171.198120 923.275940,1173.606323 919.500305,1173.777832 
	C915.330750,1173.967163 913.543213,1171.370728 913.562195,1167.434326 
	C913.614319,1156.622314 913.732849,1145.810547 913.786987,1134.998535 
	C913.802368,1131.935425 913.634155,1128.291748 917.305298,1127.698486 
	C919.893127,1127.280396 922.789368,1128.770386 925.180481,1130.432617 
	C929.879456,1129.043335 934.513855,1127.338135 939.297058,1126.361328 
	C943.345276,1125.534546 947.286926,1126.789795 948.718811,1131.039673 
	C950.313599,1135.772949 951.309021,1140.993896 947.914795,1145.373169 
	C945.063354,1149.052002 940.097351,1147.078735 938.406738,1141.499756 
z"/>
<path fill="#0C95D5" opacity="1.000000" stroke="none" 
	d="
M616.802795,1167.293823 
	C615.652283,1171.433838 613.026184,1172.646484 609.448608,1171.962646 
	C605.718811,1171.250000 605.024841,1168.421509 605.058655,1165.180542 
	C605.166199,1154.880249 605.256226,1144.579712 605.377014,1134.279663 
	C605.388611,1133.289185 605.462830,1132.275879 605.688049,1131.315430 
	C606.500793,1127.849243 608.831543,1126.281860 612.271240,1126.687500 
	C615.554565,1127.074707 617.137573,1129.035645 617.094910,1132.470459 
	C616.952454,1143.934204 616.923950,1155.399414 616.802795,1167.293823 
z"/>
<path fill="#0B95D5" opacity="1.000000" stroke="none" 
	d="
M1206.162842,1168.010132 
	C1204.918823,1172.130737 1201.726929,1172.967529 1198.950439,1171.721191 
	C1197.081909,1170.882446 1195.092773,1167.912354 1195.035034,1165.843384 
	C1194.738770,1155.226196 1194.970825,1144.590332 1195.185669,1133.964355 
	C1195.288086,1128.893188 1197.497437,1126.337402 1201.335083,1126.628052 
	C1206.015747,1126.982544 1207.238403,1130.041382 1207.098145,1134.278931 
	C1206.729858,1145.387451 1206.513550,1156.500977 1206.162842,1168.010132 
z"/>
<path fill="#0C95D5" opacity="1.000000" stroke="none" 
	d="
M617.353760,1118.615723 
	C616.636169,1119.128906 616.243042,1119.509277 615.781067,1119.633545 
	C612.069824,1120.632446 608.275879,1120.398438 607.079346,1116.344482 
	C606.453735,1114.224609 607.510559,1109.955933 609.026611,1109.240356 
	C611.345642,1108.145874 615.349060,1108.311768 617.496643,1109.703247 
	C620.715149,1111.788696 620.285095,1115.400757 617.353760,1118.615723 
z"/>
<path fill="#0C95D5" opacity="1.000000" stroke="none" 
	d="
M1204.375000,1107.920410 
	C1208.795532,1109.481201 1210.088257,1112.554688 1208.657715,1116.330444 
	C1207.357910,1119.761475 1204.165405,1120.733765 1200.783081,1119.892334 
	C1197.539673,1119.085571 1195.521606,1116.784546 1196.052979,1113.288574 
	C1196.728882,1108.840698 1199.781006,1107.350098 1204.375000,1107.920410 
z"/>
<path fill="#F8FDFE" opacity="1.000000" stroke="none" 
	d="
M500.330231,969.360291 
	C485.853577,979.409607 469.706604,983.704224 452.903442,985.922852 
	C445.853210,986.853760 438.717346,987.135803 431.000458,987.763123 
	C430.323669,980.913086 429.578369,974.531006 429.080170,968.129700 
	C426.639801,936.774658 424.309937,905.411011 421.852356,874.057251 
	C420.071320,851.335571 418.084808,828.629456 416.461121,805.897095 
	C416.363953,804.536865 418.461487,802.022522 419.899078,801.710693 
	C429.780365,799.567200 439.721649,797.627014 449.718628,796.118164 
	C455.456177,795.252197 461.334595,795.322815 467.149078,794.962952 
	C484.282990,793.902588 495.876556,801.955139 502.514221,817.239197 
	C507.887665,829.612061 510.254364,842.738708 508.918243,856.222961 
	C507.720459,868.311035 501.376984,877.684570 491.861633,885.011353 
	C490.322815,886.196350 488.751495,887.339172 486.458679,889.051514 
	C507.028473,893.866943 515.224854,907.986328 516.799194,926.897156 
	C518.177551,943.454529 514.783203,958.424622 500.330231,969.360291 
M457.670319,905.898132 
	C456.226685,906.053833 454.783051,906.209534 452.635925,906.441040 
	C453.885895,923.119690 455.109375,939.445129 456.364166,956.187988 
	C465.778412,956.147461 474.314606,954.514221 481.611176,948.987549 
	C489.897888,942.710999 491.434631,933.671814 489.740295,924.264832 
	C488.090424,915.104797 482.813904,908.335205 472.991669,906.744385 
	C468.282410,905.981628 463.424744,906.135437 457.670319,905.898132 
M445.263641,827.856384 
	C446.838684,845.130981 448.413696,862.405579 449.988953,879.682434 
	C463.592651,878.247864 473.277191,872.754089 476.952118,864.212646 
	C481.382416,853.915405 481.102905,843.493530 476.563538,833.284241 
	C474.561340,828.781189 470.908569,825.189392 466.032196,825.140686 
	C459.218384,825.072693 452.390839,826.380310 445.263641,827.856384 
z"/>
<path fill="#F8FDFE" opacity="1.000000" stroke="none" 
	d="
M801.742065,917.221985 
	C802.308716,926.290283 802.863831,934.886536 803.447205,943.919495 
	C793.151428,945.136780 783.322144,946.298889 773.036804,947.514893 
	C768.130981,885.334961 763.256348,823.550476 758.332703,761.144592 
	C768.143982,759.143494 777.992676,757.134766 788.581604,754.975037 
	C790.810486,785.369324 793.017212,815.461975 795.294312,846.513611 
	C796.083618,844.953796 796.648132,844.150391 796.919006,843.257751 
	C806.230774,812.576355 815.563538,781.901062 824.719971,751.173157 
	C825.543335,748.410034 826.786987,747.745300 829.309265,748.165527 
	C837.808655,749.581543 846.316345,750.947510 855.419128,752.430054 
	C854.928772,754.318115 854.613525,755.876221 854.121338,757.376282 
	C844.437073,786.894897 834.775208,816.421204 824.973328,845.900818 
	C823.822571,849.361877 824.129883,852.126526 826.013794,855.268250 
	C839.618652,877.956543 853.063843,900.740601 866.551208,923.499268 
	C867.389954,924.914673 868.157166,926.372437 869.292053,928.411072 
	C859.792114,933.046509 850.487183,937.586731 840.703125,942.360779 
	C826.687439,916.907288 812.873291,891.819702 799.059204,866.732117 
	C798.731506,866.857727 798.403870,866.983337 798.076233,867.108948 
	C799.294373,883.655945 800.512512,900.203003 801.742065,917.221985 
z"/>
<path fill="#F8FDFE" opacity="1.000000" stroke="none" 
	d="
M1043.274170,907.149414 
	C1036.048706,913.896912 1027.722778,917.319946 1018.314575,918.033081 
	C1001.008606,919.344910 988.013977,910.519653 982.036621,893.009460 
	C975.244751,873.113220 974.814453,852.558777 976.588806,831.857910 
	C977.434753,821.989197 979.762085,812.542603 984.773438,803.875366 
	C994.485474,787.078003 1010.811035,781.490540 1028.695557,788.895447 
	C1031.268188,789.960632 1033.810913,791.098572 1037.588135,792.730103 
	C1035.664917,771.773010 1033.825195,751.726929 1031.949219,731.284241 
	C1041.205322,729.553955 1050.101074,727.890991 1059.807861,726.076416 
	C1064.868530,790.414429 1069.893677,854.300598 1074.944092,918.507568 
	C1065.586304,919.775818 1057.434082,920.880676 1048.903931,922.036743 
	C1048.044922,916.149780 1047.263062,910.790771 1046.395874,904.847717 
	C1045.228516,905.684753 1044.383423,906.290710 1043.274170,907.149414 
M1036.342773,883.913574 
	C1041.066772,880.953125 1042.507812,876.842957 1041.962158,871.248779 
	C1040.397827,855.212952 1039.319946,839.129883 1037.983765,823.070984 
	C1037.895142,822.005676 1037.525635,820.707092 1036.811890,819.989380 
	C1027.260742,810.384338 1011.286743,814.260559 1007.689514,827.287781 
	C1003.443359,842.664612 1003.979553,858.171387 1007.780029,873.601746 
	C1011.183289,887.419434 1022.006714,894.677856 1036.342773,883.913574 
z"/>
<path fill="#F8FDFE" opacity="1.000000" stroke="none" 
	d="
M894.248169,930.976501 
	C881.006897,925.284424 877.904602,913.514343 876.420715,901.508118 
	C874.486633,885.858582 876.508240,870.784912 888.545410,858.949646 
	C901.739990,845.976379 915.507507,844.036377 932.231018,852.476135 
	C932.785828,852.756104 933.408020,852.902588 934.591858,853.320801 
	C934.213379,845.736511 933.598022,838.757019 929.305969,832.686829 
	C925.174744,826.844055 919.123779,825.499939 912.886658,827.453064 
	C905.715210,829.698853 898.916199,833.133850 891.443970,836.266724 
	C887.818604,829.582825 883.678345,822.221130 879.908813,814.674255 
	C879.408081,813.671875 880.332458,811.194336 881.371521,810.301758 
	C894.817139,798.751343 910.326172,793.461304 927.992432,796.506531 
	C947.359070,799.844788 955.432739,807.778259 958.919128,827.162415 
	C961.033203,838.916748 962.401184,850.832214 963.539001,862.729431 
	C965.688232,885.200745 967.429626,907.711060 969.409851,931.021240 
	C962.136108,933.186340 953.634521,935.716919 944.662231,938.387634 
	C943.050598,932.024170 941.575623,926.200317 939.957397,919.810974 
	C926.967407,934.300537 911.431091,935.407654 894.248169,930.976501 
M936.381470,883.090698 
	C935.648376,871.764038 935.650696,871.737976 924.283325,870.733215 
	C922.484558,870.574280 920.644714,870.663696 918.840271,870.823914 
	C912.020813,871.429443 907.523743,875.423645 906.316833,881.783936 
	C905.317749,887.049011 905.499329,892.715759 906.188660,898.071960 
	C906.834473,903.090088 912.181885,906.772705 917.320312,907.221191 
	C924.330322,907.832947 930.339783,905.141602 936.000488,901.524170 
	C936.979980,900.898132 937.772400,899.105225 937.719238,897.892151 
	C937.515869,893.254150 936.931885,888.632812 936.381470,883.090698 
z"/>
<path fill="#F8FDFE" opacity="1.000000" stroke="none" 
	d="
M1120.456543,909.937866 
	C1104.687256,907.492615 1095.516724,897.755859 1090.407104,883.979736 
	C1080.344727,856.850525 1078.143188,829.174438 1087.505737,801.430847 
	C1092.333984,787.123840 1100.605103,775.121399 1116.060913,770.255188 
	C1125.111328,767.405579 1134.363037,766.882019 1143.607666,769.396301 
	C1152.844116,771.908203 1159.820190,777.563049 1163.398682,786.340454 
	C1174.710571,814.087524 1178.150635,842.920654 1172.656006,872.400696 
	C1166.996216,902.766785 1143.353516,911.309448 1120.456543,909.937866 
M1143.619873,810.067017 
	C1137.888550,798.971252 1126.708008,796.466675 1118.362183,804.611694 
	C1116.400024,806.526672 1114.518677,809.036560 1113.780029,811.611267 
	C1108.195068,831.075439 1107.170654,850.581482 1114.989380,869.745117 
	C1118.566772,878.513184 1125.090332,881.761230 1134.264648,879.829468 
	C1142.238892,878.150391 1145.646973,872.061096 1147.108276,864.889709 
	C1150.833862,846.606750 1149.764771,828.523621 1143.619873,810.067017 
z"/>
<path fill="#F8FDFE" opacity="1.000000" stroke="none" 
	d="
M538.745605,954.196411 
	C532.818176,943.284973 530.288147,931.643555 529.389832,919.920593 
	C528.390869,906.883972 528.207764,893.648132 529.259460,880.627441 
	C530.439087,866.022949 536.425049,852.977661 547.401428,842.781128 
	C568.001343,823.645142 598.322937,830.982239 606.665100,857.819702 
	C610.520813,870.223877 611.721436,883.473633 613.844238,896.386353 
	C614.672485,901.424438 614.726929,906.589783 615.163635,912.070984 
	C608.774536,913.101807 602.905396,914.106506 597.017700,914.986389 
	C585.184937,916.754822 573.351440,918.524780 561.496216,920.131653 
	C558.743286,920.504761 557.536621,921.625000 558.149231,924.330139 
	C559.064026,928.369202 559.672668,932.543884 561.153687,936.373962 
	C563.861572,943.377014 568.804321,946.422241 576.288513,946.174866 
	C586.009338,945.853638 594.413696,942.442017 601.194885,934.287903 
	C605.216003,941.370056 609.094604,947.885559 612.555298,954.615967 
	C613.114746,955.703979 612.264221,958.109863 611.307312,959.293823 
	C600.726379,972.385803 586.286682,976.212219 570.305664,975.520325 
	C555.744812,974.889832 546.214600,966.261475 538.745605,954.196411 
M565.102234,864.381287 
	C557.193665,870.309814 553.548157,885.275024 557.602173,895.754272 
	C567.470886,894.460510 577.393677,893.159668 587.663696,891.813293 
	C587.023376,887.332397 586.571167,883.398987 585.865723,879.511475 
	C585.423706,877.075684 584.736145,874.662048 583.924072,872.319885 
	C581.203613,864.473633 574.765320,859.264160 565.102234,864.381287 
z"/>
<path fill="#F8FDFE" opacity="1.000000" stroke="none" 
	d="
M661.263794,961.122192 
	C655.482727,962.305908 650.123657,963.418335 644.206421,964.646606 
	C639.129639,902.312500 634.087708,840.406189 628.996277,777.891724 
	C638.523621,776.294495 647.921875,774.718872 657.358948,773.136780 
	C662.723389,834.987671 668.063904,896.563599 673.453674,958.706970 
	C669.712708,959.452087 665.699280,960.251465 661.263794,961.122192 
z"/>
<path fill="#F7FDFE" opacity="1.000000" stroke="none" 
	d="
M746.066772,950.422241 
	C736.777527,952.592224 727.719116,954.453796 718.211182,956.407715 
	C714.575256,912.114319 711.001953,868.584351 707.356628,824.176086 
	C716.175781,822.661987 725.197327,821.113159 734.568604,819.504272 
	C735.338135,828.324524 736.034058,836.573181 736.781372,844.817200 
	C739.438110,874.123657 742.115784,903.428223 744.777039,932.734253 
	C745.302979,938.525757 745.791748,944.320496 746.066772,950.422241 
z"/>
<path fill="#F7FDFE" opacity="1.000000" stroke="none" 
	d="
M699.546997,771.054565 
	C710.974243,769.106445 722.047485,767.301819 733.533691,765.429993 
	C734.955627,778.462524 736.279968,790.600952 737.682312,803.453857 
	C726.254150,805.241821 714.909729,807.016663 702.893677,808.896606 
	C701.635376,796.078247 700.414185,783.638184 699.546997,771.054565 
z"/>
<path fill="#EFFCFE" opacity="1.000000" stroke="none" 
	d="
M733.377075,1159.484619 
	C729.738953,1160.495605 726.451172,1161.701050 723.088074,1161.972778 
	C719.080505,1162.296509 715.320679,1160.114014 714.815857,1156.318726 
	C714.428589,1153.406738 716.005310,1149.572510 717.968872,1147.184570 
	C720.172668,1144.504150 723.793701,1142.989136 727.270325,1140.649414 
	C730.177856,1145.760376 733.062927,1150.520752 735.526672,1155.489990 
	C735.907043,1156.256958 734.353394,1157.982910 733.377075,1159.484619 
z"/>
<path fill="#D8F8FD" opacity="1.000000" stroke="none" 
	d="
M732.639343,1125.170898 
	C731.869263,1122.827393 731.044434,1120.431152 731.177124,1118.089355 
	C731.235413,1117.061768 733.246338,1116.144897 734.370605,1115.177734 
	C735.104919,1116.583862 736.689880,1118.216187 736.389343,1119.347290 
	C735.834900,1121.433594 734.173706,1123.225708 732.639343,1125.170898 
z"/>
<path fill="#EFFCFE" opacity="1.000000" stroke="none" 
	d="
M1151.140503,1148.374634 
	C1153.752319,1138.763062 1158.010986,1135.501831 1165.772461,1136.937012 
	C1169.814209,1137.684326 1172.382080,1139.841797 1172.250244,1144.335205 
	C1172.177368,1146.819946 1171.892212,1149.348511 1172.228760,1151.784668 
	C1172.938843,1156.923828 1170.753662,1160.016602 1166.041016,1161.571167 
	C1161.265381,1163.146484 1155.513184,1161.269531 1153.085815,1156.771118 
	C1151.822754,1154.430298 1151.714478,1151.466187 1151.140503,1148.374634 
z"/>
<path fill="#D8F8FD" opacity="1.000000" stroke="none" 
	d="
M526.292236,1137.866211 
	C529.937073,1137.730835 533.212402,1137.730835 536.487732,1137.730835 
	C536.616089,1138.298218 536.744446,1138.865479 536.872803,1139.432861 
	C531.345093,1141.992310 525.817444,1144.551636 520.289734,1147.111084 
	C519.900635,1146.669067 519.511475,1146.226929 519.122375,1145.784912 
	C521.389160,1143.190430 523.655945,1140.595947 526.292236,1137.866211 
z"/>
<path fill="#D8F8FD" opacity="1.000000" stroke="none" 
	d="
M1271.686768,1140.600708 
	C1275.932739,1136.127686 1280.509766,1136.253540 1286.713135,1138.784668 
	C1280.194824,1141.867065 1274.661987,1144.483276 1269.129272,1147.099609 
	C1268.859253,1146.798340 1268.589355,1146.497070 1268.319336,1146.195801 
	C1269.356323,1144.419312 1270.393433,1142.642700 1271.686768,1140.600708 
z"/>
<path fill="#D8F8FD" opacity="1.000000" stroke="none" 
	d="
M881.094238,1145.039429 
	C879.387817,1145.723389 878.029053,1146.272339 876.571045,1146.861328 
	C877.491943,1138.381592 884.175781,1135.051514 893.976929,1138.821655 
	C889.386780,1141.049072 885.414368,1142.976807 881.094238,1145.039429 
z"/>
<path fill="#EFFCFE" opacity="1.000000" stroke="none" 
	d="
M1059.945312,1156.398438 
	C1059.319336,1146.130371 1062.328369,1140.355225 1069.371948,1137.767822 
	C1074.521484,1135.876343 1075.838135,1136.853882 1075.894165,1142.176025 
	C1075.948242,1147.305176 1076.398682,1152.431030 1076.416138,1157.559082 
	C1076.420166,1158.755615 1075.703613,1160.420288 1074.764282,1161.078369 
	C1068.815186,1165.246216 1062.878296,1163.455078 1059.945312,1156.398438 
z"/>
<path fill="#EFFCFE" opacity="1.000000" stroke="none" 
	d="
M395.999237,1162.087036 
	C390.343445,1161.057983 388.159332,1158.606689 387.912445,1153.463379 
	C387.544647,1145.798950 390.456757,1140.125732 396.071533,1138.783813 
	C397.999390,1138.322998 401.071869,1138.738892 402.309509,1140.020874 
	C406.370270,1144.226562 406.065552,1149.740234 404.812592,1154.957031 
	C403.818268,1159.097168 401.063110,1161.902222 395.999237,1162.087036 
z"/>
<path fill="#0695D8" opacity="1.000000" stroke="none" 
	d="
M458.152283,905.886108 
	C463.424744,906.135437 468.282410,905.981628 472.991669,906.744385 
	C482.813904,908.335205 488.090424,915.104797 489.740295,924.264832 
	C491.434631,933.671814 489.897888,942.710999 481.611176,948.987549 
	C474.314606,954.514221 465.778412,956.147461 456.364166,956.187988 
	C455.109375,939.445129 453.885895,923.119690 452.635925,906.441040 
	C454.783051,906.209534 456.226685,906.053833 458.152283,905.886108 
z"/>
<path fill="#0795D8" opacity="1.000000" stroke="none" 
	d="
M445.416412,827.477844 
	C452.390839,826.380310 459.218384,825.072693 466.032196,825.140686 
	C470.908569,825.189392 474.561340,828.781189 476.563538,833.284241 
	C481.102905,843.493530 481.382416,853.915405 476.952118,864.212646 
	C473.277191,872.754089 463.592651,878.247864 449.988953,879.682434 
	C448.413696,862.405579 446.838684,845.130981 445.416412,827.477844 
z"/>
<path fill="#0595D8" opacity="1.000000" stroke="none" 
	d="
M1036.031982,884.109985 
	C1022.006714,894.677856 1011.183289,887.419434 1007.780029,873.601746 
	C1003.979553,858.171387 1003.443359,842.664612 1007.689514,827.287781 
	C1011.286743,814.260559 1027.260742,810.384338 1036.811890,819.989380 
	C1037.525635,820.707092 1037.895142,822.005676 1037.983765,823.070984 
	C1039.319946,839.129883 1040.397827,855.212952 1041.962158,871.248779 
	C1042.507812,876.842957 1041.066772,880.953125 1036.031982,884.109985 
z"/>
<path fill="#0795D8" opacity="1.000000" stroke="none" 
	d="
M936.435791,883.547974 
	C936.931885,888.632812 937.515869,893.254150 937.719238,897.892151 
	C937.772400,899.105225 936.979980,900.898132 936.000488,901.524170 
	C930.339783,905.141602 924.330322,907.832947 917.320312,907.221191 
	C912.181885,906.772705 906.834473,903.090088 906.188660,898.071960 
	C905.499329,892.715759 905.317749,887.049011 906.316833,881.783936 
	C907.523743,875.423645 912.020813,871.429443 918.840271,870.823914 
	C920.644714,870.663696 922.484558,870.574280 924.283325,870.733215 
	C935.650696,871.737976 935.648376,871.764038 936.435791,883.547974 
z"/>
<path fill="#0595D8" opacity="1.000000" stroke="none" 
	d="
M1143.778931,810.413269 
	C1149.764771,828.523621 1150.833862,846.606750 1147.108276,864.889709 
	C1145.646973,872.061096 1142.238892,878.150391 1134.264648,879.829468 
	C1125.090332,881.761230 1118.566772,878.513184 1114.989380,869.745117 
	C1107.170654,850.581482 1108.195068,831.075439 1113.780029,811.611267 
	C1114.518677,809.036560 1116.400024,806.526672 1118.362183,804.611694 
	C1126.708008,796.466675 1137.888550,798.971252 1143.778931,810.413269 
z"/>
<path fill="#0B95D5" opacity="1.000000" stroke="none" 
	d="
M565.432617,864.191284 
	C574.765320,859.264160 581.203613,864.473633 583.924072,872.319885 
	C584.736145,874.662048 585.423706,877.075684 585.865723,879.511475 
	C586.571167,883.398987 587.023376,887.332397 587.663696,891.813293 
	C577.393677,893.159668 567.470886,894.460510 557.602173,895.754272 
	C553.548157,885.275024 557.193665,870.309814 565.432617,864.191284 
z"/>
</svg>